<?xml version="1.0" encoding="UTF-8" standalone="no"?>
<!-- Created with Inkscape (http://www.inkscape.org/) -->

<svg
   width="16px"
   height="16px"
   viewBox="0 0 16 16"
   version="1.1"
   id="SVGRoot"
   sodipodi:docname="arrow.svg"
   inkscape:version="1.1.1 (1:1.1+202109281944+c3084ef5ed)"
   xmlns:inkscape="http://www.inkscape.org/namespaces/inkscape"
   xmlns:sodipodi="http://sodipodi.sourceforge.net/DTD/sodipodi-0.dtd"
   xmlns="http://www.w3.org/2000/svg"
   xmlns:svg="http://www.w3.org/2000/svg">
  <sodipodi:namedview
     id="namedview3869"
     pagecolor="#ffffff"
     bordercolor="#666666"
     borderopacity="1.0"
     inkscape:pageshadow="2"
     inkscape:pageopacity="0.0"
     inkscape:pagecheckerboard="0"
     inkscape:document-units="px"
     showgrid="false"
     inkscape:zoom="40.99349"
     inkscape:cx="5.6106469"
     inkscape:cy="6.9889145"
     inkscape:window-width="1920"
     inkscape:window-height="1016"
     inkscape:window-x="0"
     inkscape:window-y="27"
     inkscape:window-maximized="1"
     inkscape:current-layer="layer1" />
  <defs
     id="defs3864" />
  <g
     inkscape:label="Layer 1"
     inkscape:groupmode="layer"
     id="layer1">
    <path
       fill="currentColor"
       d="m 6.8679473,1.1231725 a 0.56048787,0.56048787 0 0 1 0.8031608,0.00124 l 6.3834029,6.5497007 a 0.61592076,0.61592076 0 0 1 0,0.8598259 L 7.6711081,15.083632 a 0.56048787,0.56048787 0 0 1 -0.8031608,0 0.58882023,0.58882023 0 0 1 0,-0.82287 L 12.870712,8.1040183 6.8679473,1.944811 a 0.58882023,0.58882023 0 0 1 0,-0.8216385 z m -4.9273654,0 a 0.56048787,0.56048787 0 0 1 0.8031605,0.00124 l 6.3834025,6.5497007 a 0.61592076,0.61592076 0 0 1 0,0.8598259 L 2.7437424,15.083632 a 0.56048787,0.56048787 0 0 1 -0.8031605,0 0.58882023,0.58882023 0 0 1 0,-0.82287 L 7.9433452,8.1040183 1.9405819,1.944811 a 0.58882023,0.58882023 0 0 1 0,-0.8216385 z"
       id="path3552"
       style="fill:#001737;fill-opacity:0.5;stroke-width:0.0192474" />
  </g>
</svg>
