<?xml version="1.0" encoding="UTF-8"?>
<!-- Created with Inkscape (http://www.inkscape.org/) -->
<svg id="SVGRoot" width="16px" height="16px" version="1.1" viewBox="0 0 16 16" xmlns="http://www.w3.org/2000/svg">
 <g fill="#001737" stroke-width=".015625">
  <path d="m8.0592 2.0047a6 6 0 1 0 0 12 6 6 0 0 0 0-12zm0-1a7 7 0 1 1 0 14 7 7 0 0 1 0-14z"/>
  <path d="m10.059 4.5047q1 0 1 1t-1 1q-1 0-1-1t1-1zm-6.646 7.854-0.708-0.708 2.901-2.9a1.5 1.5 0 0 1 1.933-0.16l2.16 1.542a0.5 0.5 0 0 0 0.623-0.034l3.904-3.494 0.666 0.746-3.903 3.493a1.5 1.5 0 0 1-1.872 0.103l-2.16-1.543a0.5 0.5 0 0 0-0.643 0.054l-2.901 2.9z"/>
 </g>
</svg>
