<svg id="SVGRoot" width="16px" height="16px" version="1.1" viewBox="0 0 16 16" xmlns="http://www.w3.org/2000/svg">
 <g id="Stockholm-icons-/-General-/-Clipboard" transform="matrix(.66381 0 0 .66381 -.021402 .031252)" fill="none" fill-rule="evenodd">
  <rect width="24" height="24"/>
  <g fill="#0069f5">
   <path d="m8 3v0.5c0 0.82843 0.67157 1.5 1.5 1.5h5c0.82843 0 1.5-0.67157 1.5-1.5v-0.5h2c1.1046 0 2 0.89543 2 2v16c0 1.1046-0.89543 2-2 2h-12c-1.1046 0-2-0.89543-2-2v-16c0-1.1046 0.89543-2 2-2z" opacity=".3"/>
   <path d="m11 2c0-0.55228 0.44772-1 1-1s1 0.44772 1 1h1.5c0.27614 0 0.5 0.22386 0.5 0.5v1c0 0.27614-0.22386 0.5-0.5 0.5h-5c-0.27614 0-0.5-0.22386-0.5-0.5v-1c0-0.27614 0.22386-0.5 0.5-0.5z"/>
   <rect x="7" y="10" width="5" height="2" rx="1" opacity=".3"/>
   <rect id="Rectangle-152-Copy" x="7" y="14" width="9" height="2" rx="1" opacity=".3"/>
  </g>
 </g>
</svg>
