<?xml version="1.0" encoding="UTF-8"?>
<!-- Created with Inkscape (http://www.inkscape.org/) -->
<svg id="SVGRoot" width="16px" height="16px" version="1.1" viewBox="0 0 16 16" xmlns="http://www.w3.org/2000/svg">
 <path d="m9.2897 4.3515a3.0003 3.0003 0 1 1 4.243 4.243l-4.95 4.95a4.0001 4.0001 0 0 1-5.657-5.657l6.364-6.364 0.707 0.707-6.364 6.364a3.0003 3.0003 0 0 0 4.243 4.243l4.95-4.95a2.0004 2.0004 0 1 0-2.829-2.829l-4.596 4.597a0.5 0.5 0 1 0 0.707 0.707l4.596-4.596 0.708 0.707-4.597 4.596a1.5 1.5 0 1 1-2.121-2.121z" fill="#001737" stroke-width=".015625"/>
</svg>
