<!-- Created with Inkscape (http://www.inkscape.org/) -->
<svg id="SVGRoot" width="16px" height="16px" version="1.1" viewBox="0 0 16 16" xmlns="http://www.w3.org/2000/svg">
 <g transform="matrix(.66381 0 0 .66381 .08614 .093233)" fill="none" fill-rule="evenodd">
  <rect id="bound" width="24" height="24"/>
  <g fill="#727384">
   <path id="Combined-Shape" d="m3.5 21h17c0.82843 0 1.5-0.67157 1.5-1.5v-11c0-0.82843-0.67157-1.5-1.5-1.5h-10.5l-2.5607-2.5607c-0.2813-0.2813-0.66284-0.43934-1.0607-0.43934h-2.8787c-0.82843 0-1.5 0.67157-1.5 1.5v14c0 0.82843 0.67157 1.5 1.5 1.5z" opacity=".3"/>
   <polygon id="Path" points="4 19 10 11 16 19" opacity=".3"/>
   <polygon id="Path-Copy" points="11 19 15 14 19 19"/>
   <path d="m18 12c0.82843 0 1.5-0.67157 1.5-1.5 0-0.82843-0.67157-1.5-1.5-1.5s-1.5 0.67157-1.5 1.5c0 0.82843 0.67157 1.5 1.5 1.5z" opacity=".3"/>
  </g>
 </g>
</svg>
