<svg id="SVGRoot" width="100px" height="100px" version="1.1" viewBox="0 0 100 100">
 <defs>
  <filter id="filter3322" x="-.00012001" y="-.00012" width="1.0002" height="1.0002" color-interpolation-filters="sRGB">
   <feGaussianBlur stdDeviation="0.005"/>
  </filter>
 </defs>
 <g fill="#0069f5">
  <rect x="-.18634" y="5e-7" width="99.999" height="100" filter="url(#filter3322)" opacity=".1" stroke-width="0"/>
  <path d="m36.529 33.792h26.117c3.6061 0 6.5294 2.9233 6.5294 6.5294v19.588c0 3.6061-2.9233 6.5294-6.5294 6.5294h-26.117c-3.6061 0-6.5294-2.9233-6.5294-6.5294v-19.588c0-3.6061 2.9233-6.5294 6.5294-6.5294zm-2.1765 26.117h19.588l-9.7941-13.059zm23.941-6.5294c3.6061 0 6.5294-2.9233 6.5294-6.5294 0-3.6061-2.9233-6.5294-6.5294-6.5294-3.6061 0-6.5294 2.9233-6.5294 6.5294 0 3.6061 2.9233 6.5294 6.5294 6.5294z" opacity=".8" stroke-width="2.1765"/>
 </g>
</svg>
