<svg id="SVGRoot" width="16px" height="16px" version="1.1" viewBox="0 0 16 16" xmlns="http://www.w3.org/2000/svg">
 <g id="Stockholm-icons-/-Communication-/-Reply-all" transform="matrix(.65974 0 0 .65974 .18642 .10193)" fill="none" fill-rule="evenodd">
  <rect width="24" height="24"/>
  <path id="Shape" d="m21.022 18.094c0-0.82031 0.17578-4.0576-2.3779-6.626-1.7188-1.7285-4.291-2.0283-7.3672-2.165v-4.3069c0-0.41421-0.33579-0.75-0.75-0.75-0.18631 0-0.36595 0.069345-0.50394 0.19453l-7.1401 6.4777c-0.30678 0.27832-0.32985 0.75263-0.051533 1.0594 0.014608 0.0161 0.029909 0.03156 0.045861 0.04633l7.1401 6.6125c0.30391 0.28145 0.77843 0.26324 1.0599-0.04066 0.1284-0.13864 0.19973-0.32064 0.19973-0.50961v-4.2832c1.9531 0.05371 3.3444 0.17795 4.6084 0.58008 1.82 0.57902 3.2266 2.2218 4.2196 4.9283l-1.6e-5 6e-6c0.10836 0.29534 0.38952 0.49166 0.70412 0.49166h0.21786c0-0.49316-0.0049-1.2744-0.0049-1.709z" fill="#0069f5" fill-rule="nonzero"/>
 </g>
</svg>
