<?xml version="1.0" encoding="UTF-8" standalone="no"?>
<!-- Created with Inkscape (http://www.inkscape.org/) -->

<svg
   width="150px"
   height="150px"
   viewBox="0 0 150 150"
   version="1.1"
   id="SVGRoot"
   sodipodi:docname="book.svg"
   inkscape:version="1.1.1 (1:1.1+202109281944+c3084ef5ed)"
   xmlns:inkscape="http://www.inkscape.org/namespaces/inkscape"
   xmlns:sodipodi="http://sodipodi.sourceforge.net/DTD/sodipodi-0.dtd"
   xmlns="http://www.w3.org/2000/svg"
   xmlns:svg="http://www.w3.org/2000/svg">
  <sodipodi:namedview
     id="namedview829"
     pagecolor="#ffffff"
     bordercolor="#666666"
     borderopacity="1.0"
     inkscape:pageshadow="2"
     inkscape:pageopacity="0.0"
     inkscape:pagecheckerboard="0"
     inkscape:document-units="px"
     showgrid="false"
     inkscape:zoom="1.8116735"
     inkscape:cx="185.18789"
     inkscape:cy="105.15139"
     inkscape:window-width="1920"
     inkscape:window-height="1016"
     inkscape:window-x="0"
     inkscape:window-y="27"
     inkscape:window-maximized="1"
     inkscape:current-layer="layer1"
     showguides="false" />
  <defs
     id="defs824" />
  <g
     inkscape:label="Layer 1"
     inkscape:groupmode="layer"
     id="layer1">
    <path
       id="rect1134"
       style="fill:#ffffff;stroke:#7fb3f9;stroke-width:0.755906;stroke-miterlimit:4;stroke-dasharray:none;stroke-opacity:1"
       d="m 25.929827,12.033916 h 94.866193 c 5.20365,0 9.39287,4.189221 9.39287,9.392872 V 130.7799 c 0,5.20365 -4.18922,9.39287 -9.39287,9.39287 H 25.929827 c -5.203651,0 -9.392872,-4.18922 -9.392872,-9.39287 V 21.426788 c 0,-2.601825 1.047305,-4.950043 2.745067,-6.647805 1.697761,-1.697762 4.045979,-2.745067 6.647805,-2.745067 z"
       sodipodi:nodetypes="ssssssssss" />
    <rect
       style="fill:#0069f5;fill-opacity:0.25;stroke:#ffffff;stroke-width:0"
       id="rect2590-3-3-0-6"
       width="1.7542347"
       height="64.19104"
       x="117.08356"
       y="-109.34539"
       transform="rotate(90)" />
    <rect
       style="fill:#0069f5;fill-opacity:0.25;stroke:#ffffff;stroke-width:0"
       id="rect2590-3-3-0"
       width="1.7542347"
       height="64.19104"
       x="120.8378"
       y="-109.34539"
       transform="rotate(90)" />
    <rect
       style="fill:#0069f5;fill-opacity:0.25;stroke:#ffffff;stroke-width:0"
       id="rect2590-3-3-5-9"
       width="1.7542347"
       height="32.09552"
       x="125.59203"
       y="-77.24987"
       transform="rotate(90)" />
    <rect
       style="fill:#0069f5;fill-opacity:0.25;stroke:#ffffff;stroke-width:0"
       id="rect2590-3-3-2"
       width="3.5084693"
       height="64.19104"
       x="93.208496"
       y="-109.51476"
       transform="rotate(90)" />
    <rect
       style="fill:#0069f5;fill-opacity:0.25;stroke:#ffffff;stroke-width:0"
       id="rect2590-3-3-5-7"
       width="3.5084693"
       height="32.09552"
       x="98.716965"
       y="-77.419243"
       transform="rotate(90)" />
    <rect
       style="fill:#ffffff;stroke:#ffffff;stroke-width:0"
       id="rect2410"
       width="10.704641"
       height="128.4986"
       x="14.446846"
       y="12.020856" />
    <rect
       style="fill:#0069f5;fill-opacity:0.5;stroke:#ffffff;stroke-width:0"
       id="rect2590"
       width="5.5143447"
       height="128.90736"
       x="20.415482"
       y="11.612094" />
    <rect
       style="fill:#0069f5;fill-opacity:0.25;stroke:#ffffff;stroke-width:0"
       id="rect2590-3"
       width="3.5084693"
       height="64.19104"
       x="29.957195"
       y="-109.49361"
       transform="rotate(90)" />
    <rect
       style="fill:#0069f5;fill-opacity:0.25;stroke:#ffffff;stroke-width:0"
       id="rect2590-3-3"
       width="3.5084693"
       height="64.19104"
       x="41.937153"
       y="-109.58802"
       transform="rotate(90)" />
    <rect
       style="fill:#0069f5;fill-opacity:0.25;stroke:#ffffff;stroke-width:0"
       id="rect2590-3-3-5"
       width="3.5084693"
       height="32.09552"
       x="47.445621"
       y="-77.4925"
       transform="rotate(90)" />
    <rect
       style="fill:#0069f5;fill-opacity:0.25;stroke:#ffffff;stroke-width:0"
       id="rect2590-3-3-6"
       width="3.5084693"
       height="64.19104"
       x="68.193146"
       y="-109.33051"
       transform="rotate(90)" />
    <rect
       style="fill:#0069f5;fill-opacity:0.25;stroke:#ffffff;stroke-width:0"
       id="rect2590-3-3-5-2"
       width="3.5084693"
       height="32.09552"
       x="73.701607"
       y="-77.234985"
       transform="rotate(90)" />
    <rect
       style="fill:#0069f5;fill-opacity:0.25;stroke:#ffffff;stroke-width:0"
       id="rect2590-3-6"
       width="3.5084693"
       height="32.09552"
       x="25.127701"
       y="-92.380653"
       transform="rotate(90)" />
    <g
       id="g1370"
       transform="matrix(0.14447618,0,0,0.14447618,39.958442,41.290791)"
       style="fill:#7fb3f9;fill-opacity:1">
      <path
         d="m 193.69,281.29 v 0.61225 c -3.9514,3.6214 -6.4904,8.9988 -9.3937,13.469 -6.3349,9.7518 -12.571,19.569 -18.802,29.388 -19.461,30.667 -38.761,61.51 -58.745,91.837 -7.8557,11.922 -15.456,24.044 -23.068,36.123 -3.0857,4.8961 -8.4123,10.646 -9.1837,16.531 -1.6396,12.496 17.411,23.13 27.356,26.058 3.9318,1.1578 9.2768,1.7002 12.833,-0.77387 3.908,-2.7196 6.3735,-8.4624 8.8555,-12.427 5.512,-8.8041 11.077,-17.589 16.695,-26.327 21.696,-33.747 43.188,-67.645 64.505,-101.63 6.5498,-10.443 13.303,-20.762 19.821,-31.225 3.1764,-5.1 7.4076,-10.302 9.5363,-15.918 35.249,13.671 73.6,16.071 109.59,3.2498 74.411,-26.507 116.95,-110.12 93.27,-185.7 -5.8751,-18.756 -14.964,-36.071 -27.27,-51.429 -13.476,-16.819 -30.906,-30.149 -50.082,-39.879 -56.39,-28.612 -130.64,-16.379 -174.43,29.48 -46.21,48.392 -56.042,122.3 -22.88,180.6 7.8172,13.744 18.33,28.763 31.397,37.959 m 88.163,-221.45 c 11.736,-1.6723 25.305,-0.21992 36.735,2.5869 24.813,6.0932 46.799,20.059 62.156,40.699 29.667,39.871 28.22,100.72 -5.7771,137.76 -7.7988,8.4949 -16.675,16.599 -26.991,21.992 -12.171,6.3612 -24.798,11.596 -38.571,13.408 -23.125,3.0428 -47.991,-0.41022 -68.571,-11.713 -55.751,-30.618 -73.431,-104.46 -38.368,-157.16 7.5826,-11.396 17.79,-21.884 29.184,-29.541 15.14,-10.175 32.297,-15.478 50.204,-18.03 m 9.8774,39.632 c -4.6653,2.6155 -0.26082,9.2535 4.1137,6.6974 4.2649,-2.4918 0.17875,-9.1041 -4.1137,-6.6974 m -33.143,3.6576 c -3.6772,0.0539 -3.5162,5.5206 0,5.7845 3.8137,0.28592 3.6845,-5.8378 0,-5.7845 m 69.814,-0.0545 c -3.8761,0.34959 -3.1629,6.281 0.57674,5.888 3.7678,-0.39613 3.3031,-6.2388 -0.57674,-5.888 m -61.24,13.937 c -5.9407,1.0555 -4.7652,10.421 1.2214,9.5247 6.1402,-0.91899 4.7638,-10.588 -1.2214,-9.5247 m 52.041,0.0251 c -6.4218,0.68265 -5.1049,10.536 1.219,9.502 5.8365,-0.95327 4.6775,-10.129 -1.219,-9.502 m -25.716,3.6337 c -7.4547,0.41571 -6.9025,11.883 0.61163,11.363 7.2031,-0.49898 6.5412,-11.761 -0.61163,-11.363 m -56.873,10.638 c -4.4082,2.4178 -0.90859,9.259 3.54,7.1063 4.7768,-2.3112 1.1988,-9.7059 -3.54,-7.1063 m 110.23,0 c -4.2882,2.4692 -0.23019,9.6882 4.1045,6.7929 4.0941,-2.7355 0.21857,-9.2829 -4.1045,-6.7929 m -66.213,5.1894 c -13.139,1.9286 -9.4592,21.379 3.6735,19.143 11.719,-1.9947 8.1135,-20.873 -3.6735,-19.143 m 23.878,0 c -13.135,1.8435 -10.18,21.234 3.0612,19.15 11.794,-1.8557 8.5665,-20.782 -3.0612,-19.15 m -46.528,4.3586 c -7.2172,1.1755 -5.4912,12.31 1.8337,11.106 7.29,-1.1982 5.3688,-12.28 -1.8337,-11.106 m 69.794,0 c -7.3794,1.1559 -5.67,12.362 1.8336,11.106 7.1064,-1.1896 5.1429,-12.199 -1.8336,-11.106 m -60.612,16.544 c -11.772,3.5676 -6.2915,21.88 5.5096,18.617 12.487,-3.4518 6.8455,-22.362 -5.5096,-18.617 m 47.142,-0.0557 c -11.959,3.1414 -6.3802,22.133 5.5102,18.673 12.313,-3.5829 6.8596,-21.923 -5.5102,-18.673 m -74.658,5.1863 c -5.1019,2.7643 -1.088,11.118 4.2226,8.4349 5.8231,-2.9412 1.3806,-11.472 -4.2226,-8.4349 m 103.47,-4.6e-4 c -5.1036,2.7833 -1.0182,11.064 4.2226,8.4355 5.8158,-2.9174 1.4517,-11.531 -4.2226,-8.4355 m -120,1.1896 c -3.5553,0.79469 -2.3467,6.2467 1.1584,5.7839 3.7427,-0.49347 2.4398,-6.5884 -1.1584,-5.7839 m 139.62,-0.0735 c -3.6765,1.1388 -1.9157,6.8449 1.7082,5.7778 3.6766,-1.0824 1.977,-6.919 -1.7082,-5.7778 m -83.33,13.887 c -12.326,2.9761 -7.208,21.862 4.898,18.939 12.32,-2.9749 7.3672,-21.901 -4.898,-18.939 m 23.265,0.071 c -11.916,3.5951 -6.5835,22.339 5.5102,18.705 12.16,-3.6539 6.5865,-22.355 -5.5102,-18.705 m -45.909,3.731 c -6.9196,2.6914 -2.6669,13.439 4.2649,10.723 6.7837,-2.6578 2.6479,-13.411 -4.2649,-10.723 m 69.796,0.002 c -6.9166,2.6308 -2.6939,13.502 4.2502,10.558 6.6257,-2.8096 2.4018,-13.088 -4.2502,-10.558 m -89.928,13.645 c -4.3029,2.4122 -1.0059,9.3368 3.5253,7.1082 4.7584,-2.34 1.1792,-9.7457 -3.5253,-7.1082 m 110.21,0 c -4.3041,2.4784 -0.20999,9.5608 4.1045,6.7776 4.1437,-2.6737 0.20387,-9.2584 -4.1045,-6.7776 m -55.184,6.5578 c -6.8994,2.6835 -2.6915,13.503 4.2502,10.559 6.671,-2.8292 2.5365,-13.199 -4.2502,-10.559 m -25.697,5.512 c -5.7336,2.2512 -2.1594,11.151 3.6196,8.8824 5.7337,-2.2512 2.1594,-11.151 -3.6196,-8.8824 m 51.437,0.17326 c -5.3455,2.8757 -1.1608,11.268 4.2166,8.4416 5.583,-2.9345 1.26,-11.388 -4.2166,-8.4416 m -59.39,17.107 c -3.5553,0.7947 -2.3467,6.2468 1.1584,5.7839 3.7427,-0.49408 2.4398,-6.5884 -1.1584,-5.7839 m 69.827,-0.0735 c -3.6686,1.1363 -1.939,6.8222 1.7082,5.6927 3.6686,-1.1363 1.939,-6.8223 -1.7082,-5.6927 m -36.105,2.5598 c -4.2318,2.381 -0.92449,9.2155 3.5553,7.1064 4.8392,-2.2782 1.1204,-9.7378 -3.5553,-7.1064 z"
         fill="#3063ef"
         id="path1306"
         style="fill:#7fb3f9;fill-opacity:1" />
      <g
         fill="#3063ee"
         id="g1368"
         style="fill:#7fb3f9;fill-opacity:1">
        <path
           d="m 291.73,226.82 c -4.2318,2.381 -0.92449,9.2155 3.5553,7.1064 4.8392,-2.2782 1.1204,-9.7378 -3.5553,-7.1064 z"
           id="path1308"
           style="fill:#7fb3f9;fill-opacity:1" />
        <path
           d="m 327.84,224.26 c -3.6686,1.1363 -1.939,6.8222 1.7082,5.6927 3.6686,-1.1363 1.939,-6.8223 -1.7082,-5.6927"
           id="path1310"
           style="fill:#7fb3f9;fill-opacity:1" />
        <path
           d="m 258.01,224.33 c -3.5553,0.7947 -2.3467,6.2468 1.1584,5.7839 3.7427,-0.49408 2.4398,-6.5884 -1.1584,-5.7839"
           id="path1312"
           style="fill:#7fb3f9;fill-opacity:1" />
        <path
           d="m 317.4,207.22 c -5.3455,2.8757 -1.1608,11.268 4.2166,8.4416 5.583,-2.9345 1.26,-11.388 -4.2166,-8.4416"
           id="path1314"
           style="fill:#7fb3f9;fill-opacity:1" />
        <path
           d="m 265.97,207.05 c -5.7336,2.2512 -2.1594,11.151 3.6196,8.8824 5.7337,-2.2512 2.1594,-11.151 -3.6196,-8.8824"
           id="path1316"
           style="fill:#7fb3f9;fill-opacity:1" />
        <path
           d="m 291.66,201.54 c -6.8994,2.6835 -2.6915,13.503 4.2502,10.559 6.671,-2.8292 2.5365,-13.199 -4.2502,-10.559"
           id="path1318"
           style="fill:#7fb3f9;fill-opacity:1" />
        <path
           d="m 346.85,194.98 c -4.3041,2.4784 -0.20999,9.5608 4.1045,6.7776 4.1437,-2.6737 0.20387,-9.2584 -4.1045,-6.7776"
           id="path1320"
           style="fill:#7fb3f9;fill-opacity:1" />
        <path
           d="m 236.63,194.98 c -4.3029,2.4122 -1.0059,9.3368 3.5253,7.1082 4.7584,-2.34 1.1792,-9.7457 -3.5253,-7.1082"
           id="path1322"
           style="fill:#7fb3f9;fill-opacity:1" />
        <path
           d="m 326.56,181.34 c -6.9166,2.6308 -2.6939,13.502 4.2502,10.558 6.6257,-2.8096 2.4018,-13.088 -4.2502,-10.558"
           id="path1324"
           style="fill:#7fb3f9;fill-opacity:1" />
        <path
           d="m 256.76,181.33 c -6.9196,2.6914 -2.6669,13.439 4.2649,10.723 6.7837,-2.6578 2.6479,-13.411 -4.2649,-10.723"
           id="path1326"
           style="fill:#7fb3f9;fill-opacity:1" />
        <path
           d="m 302.67,177.6 c -11.916,3.5951 -6.5835,22.339 5.5102,18.705 12.16,-3.6539 6.5865,-22.355 -5.5102,-18.705"
           id="path1328"
           style="fill:#7fb3f9;fill-opacity:1" />
        <path
           d="m 279.41,177.53 c -12.326,2.9761 -7.208,21.862 4.898,18.939 12.32,-2.9749 7.3672,-21.901 -4.898,-18.939"
           id="path1330"
           style="fill:#7fb3f9;fill-opacity:1" />
        <path
           d="m 362.74,163.65 c -3.6765,1.1388 -1.9157,6.8449 1.7082,5.7778 3.6766,-1.0824 1.977,-6.919 -1.7082,-5.7778"
           id="path1332"
           style="fill:#7fb3f9;fill-opacity:1" />
        <path
           d="m 223.11,163.72 c -3.5553,0.79469 -2.3467,6.2467 1.1584,5.7839 3.7427,-0.49347 2.4398,-6.5884 -1.1584,-5.7839"
           id="path1334"
           style="fill:#7fb3f9;fill-opacity:1" />
        <path
           d="m 343.12,162.53 c -5.1036,2.7833 -1.0182,11.064 4.2226,8.4355 5.8158,-2.9174 1.4517,-11.531 -4.2226,-8.4355"
           id="path1336"
           style="fill:#7fb3f9;fill-opacity:1" />
        <path
           d="m 239.65,162.53 c -5.1019,2.7643 -1.088,11.118 4.2226,8.4349 5.8231,-2.9412 1.3806,-11.472 -4.2226,-8.4349"
           id="path1338"
           style="fill:#7fb3f9;fill-opacity:1" />
        <path
           d="m 314.31,157.34 c -11.959,3.1414 -6.3802,22.133 5.5102,18.673 12.313,-3.5829 6.8596,-21.923 -5.5102,-18.673"
           id="path1340"
           style="fill:#7fb3f9;fill-opacity:1" />
        <path
           d="m 267.16,157.4 c -11.772,3.5676 -6.2915,21.88 5.5096,18.617 12.487,-3.4518 6.8455,-22.362 -5.5096,-18.617"
           id="path1342"
           style="fill:#7fb3f9;fill-opacity:1" />
        <path
           d="m 327.78,140.86 c -7.3794,1.1559 -5.67,12.362 1.8336,11.106 7.1064,-1.1896 5.1429,-12.199 -1.8336,-11.106"
           id="path1344"
           style="fill:#7fb3f9;fill-opacity:1" />
        <path
           d="m 257.98,140.86 c -7.2172,1.1755 -5.4912,12.31 1.8337,11.106 7.29,-1.1982 5.3688,-12.28 -1.8337,-11.106"
           id="path1346"
           style="fill:#7fb3f9;fill-opacity:1" />
        <path
           d="m 304.51,136.5 c -13.135,1.8435 -10.18,21.234 3.0612,19.15 11.794,-1.8557 8.5665,-20.782 -3.0612,-19.15"
           id="path1348"
           style="fill:#7fb3f9;fill-opacity:1" />
        <path
           d="m 280.63,136.5 c -13.139,1.9286 -9.4592,21.379 3.6735,19.143 11.719,-1.9947 8.1135,-20.873 -3.6735,-19.143"
           id="path1350"
           style="fill:#7fb3f9;fill-opacity:1" />
        <path
           d="m 346.85,131.31 c -4.2882,2.4692 -0.23019,9.6882 4.1045,6.7929 4.0941,-2.7355 0.21857,-9.2829 -4.1045,-6.7929"
           id="path1352"
           style="fill:#7fb3f9;fill-opacity:1" />
        <path
           d="m 236.62,131.31 c -4.4082,2.4178 -0.90859,9.259 3.54,7.1063 4.7768,-2.3112 1.1988,-9.7059 -3.54,-7.1063"
           id="path1354"
           style="fill:#7fb3f9;fill-opacity:1" />
        <path
           d="m 293.49,120.67 c -7.4547,0.41571 -6.9025,11.883 0.61163,11.363 7.2031,-0.49898 6.5412,-11.761 -0.61163,-11.363"
           id="path1356"
           style="fill:#7fb3f9;fill-opacity:1" />
        <path
           d="m 319.21,117.04 c -6.4218,0.68265 -5.1049,10.536 1.219,9.502 5.8365,-0.95327 4.6775,-10.129 -1.219,-9.502"
           id="path1358"
           style="fill:#7fb3f9;fill-opacity:1" />
        <path
           d="m 267.17,117.01 c -5.9407,1.0555 -4.7652,10.421 1.2214,9.5247 6.1402,-0.91899 4.7638,-10.588 -1.2214,-9.5247"
           id="path1360"
           style="fill:#7fb3f9;fill-opacity:1" />
        <path
           d="m 328.41,103.07 c -3.8761,0.34959 -3.1629,6.281 0.57674,5.888 3.7678,-0.39613 3.3031,-6.2388 -0.57674,-5.888"
           id="path1362"
           style="fill:#7fb3f9;fill-opacity:1" />
        <path
           d="m 258.59,103.13 c -3.6772,0.0539 -3.5162,5.5206 0,5.7845 3.8137,0.28592 3.6845,-5.8378 0,-5.7845"
           id="path1364"
           style="fill:#7fb3f9;fill-opacity:1" />
        <path
           d="m 291.73,99.47 c -4.6653,2.6155 -0.26082,9.2535 4.1137,6.6974 4.2649,-2.4918 0.17875,-9.1041 -4.1137,-6.6974"
           id="path1366"
           style="fill:#7fb3f9;fill-opacity:1" />
      </g>
    </g>
  </g>
</svg>
