<?xml version="1.0" encoding="UTF-8" standalone="no"?>
<!-- Created with Inkscape (http://www.inkscape.org/) -->

<svg
   width="120px"
   height="24px"
   viewBox="0 0 120 24"
   version="1.1"
   id="SVGRoot"
   sodipodi:docname="logo2.svg"
   inkscape:version="1.1.1 (1:1.1+202109281944+c3084ef5ed)"
   xmlns:inkscape="http://www.inkscape.org/namespaces/inkscape"
   xmlns:sodipodi="http://sodipodi.sourceforge.net/DTD/sodipodi-0.dtd"
   xmlns="http://www.w3.org/2000/svg"
   xmlns:svg="http://www.w3.org/2000/svg">
  <sodipodi:namedview
     id="namedview34195"
     pagecolor="#ffffff"
     bordercolor="#666666"
     borderopacity="1.0"
     inkscape:pageshadow="2"
     inkscape:pageopacity="0.0"
     inkscape:pagecheckerboard="0"
     inkscape:document-units="px"
     showgrid="false"
     inkscape:zoom="5.1241863"
     inkscape:cx="104.01651"
     inkscape:cy="42.836069"
     inkscape:window-width="1920"
     inkscape:window-height="1016"
     inkscape:window-x="0"
     inkscape:window-y="27"
     inkscape:window-maximized="1"
     inkscape:current-layer="layer1" />
  <defs
     id="defs34190" />
  <g
     inkscape:label="Layer 1"
     inkscape:groupmode="layer"
     id="layer1">
    <g
       id="g1263"
       style="fill:#ffffff;fill-opacity:1"
       transform="matrix(0.10159192,0,0,0.10159192,-5.4495099,-4.4501152)">
      <g
         id="g1083"
         style="fill:#ffffff;fill-opacity:1">
        <path
           class="st2"
           d="M 120.1,266.5 H 57.6 V 126.8 h 62.5 c 9.7,0 18.8,1.8 27.4,5.5 8.5,3.7 16,8.6 22.3,14.9 6.4,6.3 11.4,13.7 15,22.2 3.7,8.5 5.5,17.6 5.5,27.2 0,9.6 -1.8,18.7 -5.5,27.2 -3.7,8.5 -8.7,15.9 -15,22.2 -6.4,6.3 -13.8,11.3 -22.3,14.9 -8.6,3.8 -17.7,5.6 -27.4,5.6 z M 115.7,160.8 H 94.3 v 71.6 h 21.4 c 5,0 9.7,-0.9 14.1,-2.8 4.4,-1.9 8.2,-4.4 11.4,-7.7 3.2,-3.2 5.8,-7 7.6,-11.4 1.9,-4.4 2.8,-9 2.8,-14 0,-4.9 -0.9,-9.6 -2.8,-14 -1.9,-4.4 -4.4,-8.2 -7.6,-11.4 -3.2,-3.2 -7.1,-5.8 -11.4,-7.7 -4.3,-1.6 -9,-2.6 -14.1,-2.6 z"
           id="path1075"
           style="fill:#ffffff;fill-opacity:1" />
        <path
           class="st2"
           d="m 271.8,218.4 v 48.1 H 232 V 218.4 L 183.2,127 h 43.9 l 24.8,48.6 24.7,-48.6 h 43.9 z"
           id="path1077"
           style="fill:#ffffff;fill-opacity:1" />
        <path
           class="st2"
           d="m 387.7,270.8 c -10.3,0 -20,-1.9 -29,-5.8 -9,-3.8 -16.9,-9.1 -23.6,-15.8 -6.7,-6.7 -12,-14.5 -15.9,-23.5 -3.9,-9 -5.9,-18.6 -5.9,-28.8 0,-10.2 1.9,-19.8 5.9,-28.8 3.9,-9 9.2,-16.8 15.9,-23.5 6.7,-6.7 14.6,-11.9 23.6,-15.8 9,-3.9 18.7,-5.8 29,-5.8 10.2,0 19.8,2 28.9,5.8 9.1,3.9 16.9,9.2 23.7,15.8 6.7,6.7 12,14.5 15.9,23.5 3.9,9 5.9,18.6 5.9,28.8 0,10.2 -2,19.8 -5.9,28.8 -3.9,9 -9.2,16.8 -15.9,23.5 -6.7,6.7 -14.6,11.9 -23.7,15.8 -9,3.9 -18.7,5.8 -28.9,5.8 z m 0,-112.1 c -5.3,0 -10.2,1.1 -14.7,3.2 -4.5,2.1 -8.4,4.9 -11.6,8.4 -3.2,3.5 -5.8,7.5 -7.7,12.1 -1.9,4.6 -2.8,9.5 -2.8,14.7 0,5 0.9,9.9 2.8,14.6 1.9,4.7 4.4,8.8 7.7,12.2 3.2,3.5 7.1,6.3 11.6,8.4 4.5,2.1 9.4,3.2 14.7,3.2 5.3,0 10.2,-1 14.7,-3.2 4.5,-2.1 8.4,-4.9 11.6,-8.4 3.2,-3.5 5.8,-7.6 7.7,-12.2 1.9,-4.7 2.8,-9.5 2.8,-14.6 0,-5.2 -0.9,-10 -2.8,-14.7 -1.9,-4.6 -4.4,-8.7 -7.7,-12.1 -3.2,-3.5 -7.1,-6.3 -11.6,-8.4 -4.5,-2.2 -9.4,-3.2 -14.7,-3.2 z"
           id="path1079"
           style="fill:#ffffff;fill-opacity:1" />
        <path
           class="st2"
           d="m 566.1,266.5 -24.3,-43.2 h -23.6 l 0.2,43.2 H 479.9 V 126.8 h 70 c 3.4,0 6.8,0.6 10.3,1.9 3.5,1.3 6.8,2.9 10.1,5 3.2,2.1 6.2,4.5 9,7.1 2.8,2.6 5.1,5.3 7,8.1 2.4,3.5 4.2,7.5 5.5,12.2 1.3,4.6 1.9,9 1.9,13.2 0,7 -1.6,13.4 -4.9,19.4 -3.2,6 -7.7,11 -13.5,15.1 l 32.8,57.6 h -42 z M 538.9,158 h -21.8 v 30 h 21.8 c 2.2,0 4.2,-0.4 6.1,-1.2 1.9,-0.8 3.6,-1.8 5,-3.2 1.4,-1.4 2.6,-3 3.4,-4.7 0.8,-1.8 1.3,-3.8 1.3,-5.9 0,-2.1 -0.4,-4.1 -1.3,-5.9 -0.8,-1.8 -2,-3.4 -3.4,-4.7 -1.4,-1.4 -3.1,-2.4 -5,-3.2 -1.9,-0.8 -3.9,-1.2 -6.1,-1.2 z"
           id="path1081"
           style="fill:#ffffff;fill-opacity:1" />
      </g>
      <g
         id="g1261"
         style="fill:#ffffff;fill-opacity:1">
        <g
           id="g1089"
           style="fill:#ffffff;fill-opacity:1">
          <path
             class="st2"
             d="M 796.3,161.4 H 758 V 266.5 H 720 V 161.4 h -38.3 l -2.5,-2.5 v -32 h 119.7 v 32 z"
             id="path1085"
             style="fill:#ffffff;fill-opacity:1" />
          <path
             class="st2"
             d="M 1120.5,266.5 V 126.8 h 38.7 v 105.1 h 73.4 v 34.6 z"
             id="path1087"
             style="fill:#ffffff;fill-opacity:1" />
        </g>
        <g
           id="g1174"
           style="fill:#ffffff;fill-opacity:1">
          <path
             class="st3"
             d="m 917.6,127.4 c -8.8,-4.4 -17.9,-7 -27.3,-7.8 -9.4,-0.8 -18.9,0.2 -28.3,3.1 -5.4,1.6 -10.6,3.9 -15.5,6.8 L 788.8,60.7 c -3.7,-4.4 -10.2,-5 -14.6,-1.3 L 770,63 c -4.4,3.7 -5,10.2 -1.3,14.6 l 57.8,68.9 c -0.7,0.8 -1.3,1.6 -2,2.5 -8,9.6 -12.2,24.8 -12.2,24.8 -1.2,4.4 -2.1,8.8 -2.5,13.4 -0.9,9.4 0.1,18.8 2.9,28.2 2.8,9.4 7.5,18 14,25.8 6.6,7.8 14.2,13.9 23,18.3 8.8,4.4 17.9,7 27.3,7.8 9.4,0.8 18.8,-0.2 28.2,-3.1 9.4,-2.8 18,-7.6 25.9,-14.2 7.8,-6.6 14,-14.2 18.4,-23 4.5,-8.8 7.1,-17.9 8,-27.3 0.9,-9.4 -0.1,-18.8 -2.9,-28.2 -2.8,-9.4 -7.5,-18 -14,-25.8 -6.6,-7.8 -14.2,-13.9 -23,-18.3 z m 14,50.9 c 1.9,6.4 2.6,12.9 2,19.2 -0.6,6.3 -2.4,12.6 -5.5,18.6 -3,5.8 -7.2,11.1 -12.5,15.5 -5.4,4.5 -11.2,7.7 -17.4,9.6 -6.4,1.9 -12.9,2.7 -19.2,2.1 -6.3,-0.5 -12.6,-2.3 -18.5,-5.3 -5.8,-2.9 -11,-7 -15.4,-12.3 -4.4,-5.2 -7.6,-11.1 -9.4,-17.2 -1.9,-6.4 -2.6,-12.9 -2,-19.2 0.6,-6.4 2.4,-12.7 5.4,-18.8 2.9,-5.8 7.1,-11 12.4,-15.5 5.3,-4.4 11.1,-7.6 17.4,-9.5 6.5,-2 13,-2.7 19.4,-2.1 6.3,0.5 12.6,2.3 18.6,5.3 5.8,2.9 10.9,7 15.3,12.3 4.4,5.4 7.6,11.2 9.4,17.3 z"
             id="path1091"
             style="fill:#ffffff;fill-opacity:1" />
          <linearGradient
             id="SVGID_1_"
             gradientUnits="userSpaceOnUse"
             x1="884.08472"
             y1="131.0519"
             x2="884.08472"
             y2="254.83189">
            <stop
               offset="0"
               style="stop-color:#09A2E0"
               id="stop1093" />
            <stop
               offset="1"
               style="stop-color:#7CB8E5"
               id="stop1095" />
          </linearGradient>
          <path
             class="st4"
             d="m 884.1,143.1 c 6.9,0 13.4,1.3 19.4,3.9 6.2,2.7 11.7,6.3 16.3,10.8 4.5,4.5 8.1,9.9 10.8,16 2.6,5.9 3.9,12.4 3.9,19.3 0,6.9 -1.3,13.3 -3.9,19.3 -2.7,6.1 -6.3,11.5 -10.8,16 -4.5,4.5 -9.9,8.1 -16.1,10.7 -6,2.6 -12.6,3.9 -19.5,3.9 -7,0 -13.6,-1.3 -19.6,-3.8 -6.2,-2.6 -11.6,-6.2 -16.1,-10.7 -4.5,-4.5 -8.1,-9.9 -10.8,-16 -2.6,-5.9 -3.9,-12.4 -3.9,-19.3 0,-6.8 1.3,-13.3 3.9,-19.3 2.7,-6.1 6.3,-11.5 10.8,-16 4.6,-4.5 10,-8.2 16.2,-10.9 5.9,-2.6 12.4,-3.9 19.4,-3.9 m 0,-12 c -8.6,0 -16.8,1.6 -24.2,4.9 -7.6,3.3 -14.3,7.8 -19.9,13.3 -5.6,5.6 -10.1,12.2 -13.4,19.7 -3.2,7.4 -4.9,15.5 -4.9,24 0,8.5 1.6,16.6 4.9,24 3.3,7.6 7.8,14.2 13.4,19.7 5.6,5.6 12.3,10 19.8,13.2 7.5,3.2 15.6,4.8 24.3,4.8 8.5,0 16.7,-1.6 24.2,-4.8 7.6,-3.2 14.3,-7.7 19.9,-13.2 5.6,-5.6 10.1,-12.2 13.4,-19.7 3.2,-7.4 4.9,-15.5 4.9,-24 0,-8.5 -1.6,-16.6 -4.9,-24 -3.3,-7.6 -7.8,-14.2 -13.4,-19.7 -5.6,-5.6 -12.3,-10.1 -20,-13.3 -7.5,-3.3 -15.6,-4.9 -24.1,-4.9 z"
             id="path1098"
             style="fill:#ffffff;fill-opacity:1" />
          <g
             id="g1172"
             style="fill:#ffffff;fill-opacity:1">
            <g
               id="g1112"
               style="fill:#ffffff;fill-opacity:1">
              <path
                 class="st5"
                 d="m 882.5,183.8 c -0.1,-2.5 -2,-4.6 -4.6,-4.6 -2.4,0 -4.7,2.1 -4.6,4.6 0.1,2.5 2,4.6 4.6,4.6 2.5,-0.1 4.8,-2.2 4.6,-4.6 z"
                 id="path1100"
                 style="fill:#ffffff;fill-opacity:1" />
              <path
                 class="st5"
                 d="m 894.4,183.8 c -0.1,-2.5 -2,-4.6 -4.6,-4.6 -2.4,0 -4.7,2.1 -4.6,4.6 0.1,2.5 2,4.6 4.6,4.6 2.5,-0.1 4.8,-2.2 4.6,-4.6 z"
                 id="path1102"
                 style="fill:#ffffff;fill-opacity:1" />
              <path
                 class="st5"
                 d="m 900,194 c -0.1,-2.5 -2,-4.6 -4.6,-4.6 -2.4,0 -4.7,2.1 -4.6,4.6 0.1,2.5 2,4.6 4.6,4.6 2.5,-0.1 4.7,-2.1 4.6,-4.6 z"
                 id="path1104"
                 style="fill:#ffffff;fill-opacity:1" />
              <path
                 class="st5"
                 d="m 894.3,204.2 c -0.1,-2.5 -2,-4.6 -4.6,-4.6 -2.4,0 -4.7,2.1 -4.6,4.6 0.1,2.5 2,4.6 4.6,4.6 2.4,0 4.7,-2.1 4.6,-4.6 z"
                 id="path1106"
                 style="fill:#ffffff;fill-opacity:1" />
              <path
                 class="st5"
                 d="m 882.4,204 c -0.1,-2.5 -2,-4.6 -4.6,-4.6 -2.4,0 -4.7,2.1 -4.6,4.6 0.1,2.5 2,4.6 4.6,4.6 2.4,0 4.7,-2.1 4.6,-4.6 z"
                 id="path1108"
                 style="fill:#ffffff;fill-opacity:1" />
              <path
                 class="st5"
                 d="m 876.8,194.2 c -0.1,-2.5 -2,-4.6 -4.6,-4.6 -2.4,0 -4.7,2.1 -4.6,4.6 0.1,2.5 2,4.6 4.6,4.6 2.4,-0.1 4.7,-2.2 4.6,-4.6 z"
                 id="path1110"
                 style="fill:#ffffff;fill-opacity:1" />
            </g>
            <g
               id="g1126"
               style="fill:#ffffff;fill-opacity:1">
              <path
                 class="st5"
                 d="m 901.2,181 c -3.8,0 -3.8,5.9 0,5.9 3.8,0 3.8,-5.9 0,-5.9 z"
                 id="path1114"
                 style="fill:#ffffff;fill-opacity:1" />
              <path
                 class="st5"
                 d="m 883.9,170.8 c -3.8,0 -3.8,5.9 0,5.9 3.8,-0.1 3.8,-5.9 0,-5.9 z"
                 id="path1116"
                 style="fill:#ffffff;fill-opacity:1" />
              <path
                 class="st5"
                 d="m 866.5,181 c -3.8,0 -3.8,5.9 0,5.9 3.7,0 3.7,-5.9 0,-5.9 z"
                 id="path1118"
                 style="fill:#ffffff;fill-opacity:1" />
              <path
                 class="st5"
                 d="m 866.5,201.1 c -3.8,0 -3.8,5.9 0,5.9 3.7,0 3.7,-5.9 0,-5.9 z"
                 id="path1120"
                 style="fill:#ffffff;fill-opacity:1" />
              <path
                 class="st5"
                 d="m 883.9,211.1 c -3.8,0 -3.8,5.9 0,5.9 3.8,0 3.8,-5.9 0,-5.9 z"
                 id="path1122"
                 style="fill:#ffffff;fill-opacity:1" />
              <path
                 class="st5"
                 d="m 901.2,201.3 c -3.8,0 -3.8,5.9 0,5.9 3.8,-0.1 3.8,-5.9 0,-5.9 z"
                 id="path1124"
                 style="fill:#ffffff;fill-opacity:1" />
            </g>
            <g
               id="g1138"
               style="fill:#ffffff;fill-opacity:1">
              <path
                 class="st5"
                 d="m 896.8,169.2 c -2.9,0 -2.9,4.6 0,4.6 2.9,0 2.9,-4.6 0,-4.6 z"
                 id="path1128"
                 style="fill:#ffffff;fill-opacity:1" />
              <path
                 class="st5"
                 d="m 870.9,169.4 c -2.9,0 -2.9,4.6 0,4.6 2.9,0 3,-4.6 0,-4.6 z"
                 id="path1130"
                 style="fill:#ffffff;fill-opacity:1" />
              <path
                 class="st5"
                 d="m 857.9,191.7 c -2.9,0 -2.9,4.6 0,4.6 2.9,0 2.9,-4.6 0,-4.6 z"
                 id="path1132"
                 style="fill:#ffffff;fill-opacity:1" />
              <path
                 class="st5"
                 d="m 870.7,214.2 c -2.9,0 -2.9,4.6 0,4.6 3,0 3,-4.6 0,-4.6 z"
                 id="path1134"
                 style="fill:#ffffff;fill-opacity:1" />
              <path
                 class="st5"
                 d="m 909.8,191.7 c -2.9,0 -2.9,4.6 0,4.6 2.9,0 2.9,-4.6 0,-4.6 z"
                 id="path1136"
                 style="fill:#ffffff;fill-opacity:1" />
            </g>
            <g
               id="g1156"
               style="fill:#ffffff;fill-opacity:1">
              <path
                 class="st5"
                 d="m 911.5,176 c -2.5,0 -2.5,3.9 0,3.9 2.5,0 2.5,-3.9 0,-3.9 z"
                 id="path1140"
                 style="fill:#ffffff;fill-opacity:1" />
              <path
                 class="st5"
                 d="m 883.9,224 c -2.5,0 -2.5,3.9 0,3.9 2.5,0 2.6,-3.9 0,-3.9 z"
                 id="path1142"
                 style="fill:#ffffff;fill-opacity:1" />
              <g
                 id="g1154"
                 style="fill:#ffffff;fill-opacity:1">
                <path
                   class="st5"
                   d="m 896.6,214.2 c -2.9,0 -2.9,4.6 0,4.6 2.9,0 2.9,-4.6 0,-4.6 z"
                   id="path1144"
                   style="fill:#ffffff;fill-opacity:1" />
                <path
                   class="st5"
                   d="m 883.9,160 c -2.5,0 -2.5,3.9 0,3.9 2.5,0.1 2.6,-3.9 0,-3.9 z"
                   id="path1146"
                   style="fill:#ffffff;fill-opacity:1" />
                <path
                   class="st5"
                   d="m 856,175.9 c -2.5,0 -2.5,3.9 0,3.9 2.6,0 2.6,-3.9 0,-3.9 z"
                   id="path1148"
                   style="fill:#ffffff;fill-opacity:1" />
                <path
                   class="st5"
                   d="m 856.2,208 c -2.5,0 -2.5,3.9 0,3.9 2.5,0 2.5,-3.9 0,-3.9 z"
                   id="path1150"
                   style="fill:#ffffff;fill-opacity:1" />
                <path
                   class="st5"
                   d="m 911.5,208.2 c -2.5,0 -2.5,3.9 0,3.9 2.5,0 2.5,-3.9 0,-3.9 z"
                   id="path1152"
                   style="fill:#ffffff;fill-opacity:1" />
              </g>
            </g>
            <g
               id="g1170"
               style="fill:#ffffff;fill-opacity:1">
              <path
                 class="st5"
                 d="m 919.1,192.6 c -1.8,0 -1.8,2.8 0,2.8 1.8,0 1.8,-2.8 0,-2.8 z"
                 id="path1158"
                 style="fill:#ffffff;fill-opacity:1" />
              <path
                 class="st5"
                 d="m 901.2,162.1 c -1.8,0 -1.8,2.8 0,2.8 1.8,0 1.9,-2.8 0,-2.8 z"
                 id="path1160"
                 style="fill:#ffffff;fill-opacity:1" />
              <path
                 class="st5"
                 d="m 866.3,162.3 c -1.8,0 -1.8,2.8 0,2.8 1.8,0 1.8,-2.8 0,-2.8 z"
                 id="path1162"
                 style="fill:#ffffff;fill-opacity:1" />
              <path
                 class="st5"
                 d="m 848.8,192.6 c -1.8,0 -1.8,2.8 0,2.8 1.8,0 1.8,-2.8 0,-2.8 z"
                 id="path1164"
                 style="fill:#ffffff;fill-opacity:1" />
              <path
                 class="st5"
                 d="m 866.3,222.9 c -1.8,0 -1.8,2.8 0,2.8 1.8,0 1.8,-2.8 0,-2.8 z"
                 id="path1166"
                 style="fill:#ffffff;fill-opacity:1" />
              <path
                 class="st5"
                 d="m 901.2,222.7 c -1.8,0 -1.8,2.8 0,2.8 1.8,0 1.9,-2.8 0,-2.8 z"
                 id="path1168"
                 style="fill:#ffffff;fill-opacity:1" />
            </g>
          </g>
        </g>
        <g
           id="g1259"
           style="fill:#ffffff;fill-opacity:1">
          <path
             class="st3"
             d="m 979.4,145.7 c -6.6,7.8 -11.2,16.4 -14,25.8 -2.8,9.4 -3.8,18.8 -2.9,28.2 0.9,9.4 3.5,18.5 8,27.3 4.5,8.8 10.6,16.4 18.4,23 7.9,6.6 16.5,11.4 25.9,14.2 9.4,2.8 18.8,3.9 28.2,3.1 9.4,-0.8 18.5,-3.4 27.3,-7.8 8.8,-4.4 16.4,-10.5 23,-18.3 6.6,-7.8 11.2,-16.4 14,-25.8 2.8,-9.4 3.8,-18.8 2.9,-28.2 -0.4,-4.5 -1.3,-9 -2.5,-13.4 0,0 -4.2,-15.2 -12.2,-24.8 -0.6,-0.8 -1.3,-1.7 -2,-2.5 l 57.8,-68.9 c 3.7,-4.4 3.1,-10.9 -1.3,-14.6 l -4.2,-3.6 c -4.4,-3.7 -10.9,-3.1 -14.6,1.3 l -57.7,68.8 c -4.9,-2.9 -10.1,-5.1 -15.5,-6.8 -9.4,-2.8 -18.9,-3.9 -28.3,-3.1 -9.4,0.8 -18.5,3.4 -27.3,7.8 -8.8,4.4 -16.4,10.5 -23,18.3 z m 18.4,15.4 c 4.4,-5.3 9.6,-9.4 15.3,-12.3 6,-3 12.2,-4.8 18.6,-5.3 6.4,-0.5 12.9,0.2 19.4,2.1 6.3,1.9 12.1,5.1 17.4,9.5 5.3,4.5 9.5,9.7 12.4,15.5 3,6.1 4.9,12.4 5.4,18.8 0.6,6.3 -0.1,12.8 -2,19.2 -1.9,6.2 -5,12 -9.4,17.2 -4.4,5.2 -9.6,9.4 -15.4,12.3 -6,3 -12.2,4.8 -18.5,5.3 -6.4,0.5 -12.8,-0.2 -19.2,-2.1 -6.2,-1.9 -12.1,-5.1 -17.4,-9.6 -5.3,-4.4 -9.5,-9.7 -12.5,-15.5 -3.1,-6 -4.9,-12.2 -5.5,-18.6 -0.6,-6.3 0.1,-12.8 2,-19.2 1.8,-6.2 5,-12 9.4,-17.3 z"
             id="path1176"
             style="fill:#ffffff;fill-opacity:1" />
          <linearGradient
             id="SVGID_2_"
             gradientUnits="userSpaceOnUse"
             x1="688.08459"
             y1="131.0519"
             x2="688.08459"
             y2="254.83189"
             gradientTransform="matrix(-1,0,0,1,1723.9846,0)">
            <stop
               offset="0"
               style="stop-color:#09A2E0"
               id="stop1178" />
            <stop
               offset="1"
               style="stop-color:#7CB8E5"
               id="stop1180" />
          </linearGradient>
          <path
             class="st6"
             d="m 1035.9,143.1 c 7,0 13.5,1.3 19.4,3.9 6.2,2.7 11.7,6.3 16.2,10.9 4.5,4.5 8.1,9.8 10.8,16 2.6,5.9 3.9,12.4 3.9,19.3 0,6.8 -1.3,13.3 -3.9,19.3 -2.7,6.1 -6.3,11.5 -10.8,16 -4.5,4.5 -9.9,8.1 -16.1,10.7 -6,2.5 -12.5,3.8 -19.6,3.8 -6.9,0 -13.5,-1.3 -19.5,-3.9 -6.2,-2.6 -11.6,-6.2 -16.1,-10.7 -4.5,-4.5 -8.1,-9.9 -10.8,-16 -2.6,-5.9 -3.9,-12.4 -3.9,-19.3 0,-6.9 1.3,-13.3 3.9,-19.3 2.7,-6.1 6.3,-11.5 10.8,-16 4.5,-4.5 10,-8.2 16.3,-10.8 6,-2.6 12.5,-3.9 19.4,-3.9 m 0,-12 c -8.5,0 -16.6,1.6 -24.1,4.9 -7.6,3.3 -14.4,7.8 -20,13.3 -5.6,5.6 -10.1,12.2 -13.4,19.7 -3.2,7.4 -4.9,15.5 -4.9,24 0,8.5 1.6,16.6 4.9,24 3.3,7.6 7.8,14.2 13.4,19.7 5.6,5.5 12.3,10 19.9,13.2 7.5,3.2 15.7,4.8 24.2,4.8 8.6,0 16.8,-1.6 24.3,-4.8 7.6,-3.2 14.2,-7.7 19.8,-13.2 5.6,-5.6 10.1,-12.2 13.4,-19.7 3.2,-7.4 4.9,-15.5 4.9,-24 0,-8.5 -1.6,-16.6 -4.9,-24 -3.3,-7.5 -7.8,-14.2 -13.4,-19.7 -5.6,-5.6 -12.3,-10.1 -19.9,-13.3 -7.4,-3.3 -15.6,-4.9 -24.2,-4.9 z"
             id="path1183"
             style="fill:#ffffff;fill-opacity:1" />
          <g
             id="g1257"
             style="fill:#ffffff;fill-opacity:1">
            <g
               id="g1197"
               style="fill:#ffffff;fill-opacity:1">
              <path
                 class="st5"
                 d="m 1037.4,183.8 c 0.1,-2.5 2,-4.6 4.6,-4.6 2.4,0 4.7,2.1 4.6,4.6 -0.1,2.5 -2,4.6 -4.6,4.6 -2.4,-0.1 -4.7,-2.2 -4.6,-4.6 z"
                 id="path1185"
                 style="fill:#ffffff;fill-opacity:1" />
              <path
                 class="st5"
                 d="m 1025.5,183.8 c 0.1,-2.5 2,-4.6 4.6,-4.6 2.4,0 4.7,2.1 4.6,4.6 -0.1,2.5 -2,4.6 -4.6,4.6 -2.4,-0.1 -4.7,-2.2 -4.6,-4.6 z"
                 id="path1187"
                 style="fill:#ffffff;fill-opacity:1" />
              <path
                 class="st5"
                 d="m 1020,194 c 0.1,-2.5 2,-4.6 4.6,-4.6 2.4,0 4.7,2.1 4.6,4.6 -0.1,2.5 -2,4.6 -4.6,4.6 -2.5,-0.1 -4.7,-2.1 -4.6,-4.6 z"
                 id="path1189"
                 style="fill:#ffffff;fill-opacity:1" />
              <path
                 class="st5"
                 d="m 1025.7,204.2 c 0.1,-2.5 2,-4.6 4.6,-4.6 2.4,0 4.7,2.1 4.6,4.6 -0.1,2.5 -2,4.6 -4.6,4.6 -2.4,0 -4.7,-2.1 -4.6,-4.6 z"
                 id="path1191"
                 style="fill:#ffffff;fill-opacity:1" />
              <path
                 class="st5"
                 d="m 1037.6,204 c 0.1,-2.5 2,-4.6 4.6,-4.6 2.4,0 4.7,2.1 4.6,4.6 -0.1,2.5 -2,4.6 -4.6,4.6 -2.4,0 -4.7,-2.1 -4.6,-4.6 z"
                 id="path1193"
                 style="fill:#ffffff;fill-opacity:1" />
              <path
                 class="st5"
                 d="m 1043.2,194.2 c 0.1,-2.5 2,-4.6 4.6,-4.6 2.4,0 4.7,2.1 4.6,4.6 -0.1,2.5 -2,4.6 -4.6,4.6 -2.4,-0.1 -4.7,-2.2 -4.6,-4.6 z"
                 id="path1195"
                 style="fill:#ffffff;fill-opacity:1" />
            </g>
            <g
               id="g1211"
               style="fill:#ffffff;fill-opacity:1">
              <path
                 class="st5"
                 d="m 1018.8,181 c 3.8,0 3.8,5.9 0,5.9 -3.8,0 -3.8,-5.9 0,-5.9 z"
                 id="path1199"
                 style="fill:#ffffff;fill-opacity:1" />
              <path
                 class="st5"
                 d="m 1036,170.8 c 3.8,0 3.8,5.9 0,5.9 -3.7,-0.1 -3.7,-5.9 0,-5.9 z"
                 id="path1201"
                 style="fill:#ffffff;fill-opacity:1" />
              <path
                 class="st5"
                 d="m 1053.5,181 c 3.8,0 3.8,5.9 0,5.9 -3.7,0 -3.7,-5.9 0,-5.9 z"
                 id="path1203"
                 style="fill:#ffffff;fill-opacity:1" />
              <path
                 class="st5"
                 d="m 1053.5,201.1 c 3.8,0 3.8,5.9 0,5.9 -3.7,0 -3.7,-5.9 0,-5.9 z"
                 id="path1205"
                 style="fill:#ffffff;fill-opacity:1" />
              <path
                 class="st5"
                 d="m 1036,211.1 c 3.8,0 3.8,5.9 0,5.9 -3.7,0 -3.7,-5.9 0,-5.9 z"
                 id="path1207"
                 style="fill:#ffffff;fill-opacity:1" />
              <path
                 class="st5"
                 d="m 1018.8,201.3 c 3.8,0 3.8,5.9 0,5.9 -3.8,-0.1 -3.8,-5.9 0,-5.9 z"
                 id="path1209"
                 style="fill:#ffffff;fill-opacity:1" />
            </g>
            <g
               id="g1223"
               style="fill:#ffffff;fill-opacity:1">
              <path
                 class="st5"
                 d="m 1023.2,169.2 c 2.9,0 2.9,4.6 0,4.6 -2.9,0 -2.9,-4.6 0,-4.6 z"
                 id="path1213"
                 style="fill:#ffffff;fill-opacity:1" />
              <path
                 class="st5"
                 d="m 1049.1,169.4 c 2.9,0 2.9,4.6 0,4.6 -3,0 -3,-4.6 0,-4.6 z"
                 id="path1215"
                 style="fill:#ffffff;fill-opacity:1" />
              <path
                 class="st5"
                 d="m 1062.1,191.7 c 2.9,0 2.9,4.6 0,4.6 -2.9,0 -3,-4.6 0,-4.6 z"
                 id="path1217"
                 style="fill:#ffffff;fill-opacity:1" />
              <path
                 class="st5"
                 d="m 1049.3,214.2 c 2.9,0 2.9,4.6 0,4.6 -3,0 -3,-4.6 0,-4.6 z"
                 id="path1219"
                 style="fill:#ffffff;fill-opacity:1" />
              <path
                 class="st5"
                 d="m 1010.2,191.7 c 2.9,0 2.9,4.6 0,4.6 -2.9,0 -2.9,-4.6 0,-4.6 z"
                 id="path1221"
                 style="fill:#ffffff;fill-opacity:1" />
            </g>
            <g
               id="g1241"
               style="fill:#ffffff;fill-opacity:1">
              <path
                 class="st5"
                 d="m 1008.5,176 c 2.5,0 2.5,3.9 0,3.9 -2.5,0 -2.5,-3.9 0,-3.9 z"
                 id="path1225"
                 style="fill:#ffffff;fill-opacity:1" />
              <path
                 class="st5"
                 d="m 1036,224 c 2.5,0 2.5,3.9 0,3.9 -2.5,0 -2.5,-3.9 0,-3.9 z"
                 id="path1227"
                 style="fill:#ffffff;fill-opacity:1" />
              <g
                 id="g1239"
                 style="fill:#ffffff;fill-opacity:1">
                <path
                   class="st5"
                   d="m 1023.4,214.2 c 2.9,0 2.9,4.6 0,4.6 -2.9,0 -2.9,-4.6 0,-4.6 z"
                   id="path1229"
                   style="fill:#ffffff;fill-opacity:1" />
                <path
                   class="st5"
                   d="m 1036,160 c 2.5,0 2.5,3.9 0,3.9 -2.5,0.1 -2.5,-3.9 0,-3.9 z"
                   id="path1231"
                   style="fill:#ffffff;fill-opacity:1" />
                <path
                   class="st5"
                   d="m 1063.9,175.9 c 2.5,0 2.5,3.9 0,3.9 -2.5,0 -2.5,-3.9 0,-3.9 z"
                   id="path1233"
                   style="fill:#ffffff;fill-opacity:1" />
                <path
                   class="st5"
                   d="m 1063.8,208 c 2.5,0 2.5,3.9 0,3.9 -2.6,0 -2.6,-3.9 0,-3.9 z"
                   id="path1235"
                   style="fill:#ffffff;fill-opacity:1" />
                <path
                   class="st5"
                   d="m 1008.5,208.2 c 2.5,0 2.5,3.9 0,3.9 -2.5,0 -2.5,-3.9 0,-3.9 z"
                   id="path1237"
                   style="fill:#ffffff;fill-opacity:1" />
              </g>
            </g>
            <g
               id="g1255"
               style="fill:#ffffff;fill-opacity:1">
              <path
                 class="st5"
                 d="m 1000.9,192.6 c 1.8,0 1.8,2.8 0,2.8 -1.8,0 -1.8,-2.8 0,-2.8 z"
                 id="path1243"
                 style="fill:#ffffff;fill-opacity:1" />
              <path
                 class="st5"
                 d="m 1018.8,162.1 c 1.8,0 1.8,2.8 0,2.8 -1.9,0 -1.9,-2.8 0,-2.8 z"
                 id="path1245"
                 style="fill:#ffffff;fill-opacity:1" />
              <path
                 class="st5"
                 d="m 1053.7,162.3 c 1.8,0 1.8,2.8 0,2.8 -1.8,0 -1.8,-2.8 0,-2.8 z"
                 id="path1247"
                 style="fill:#ffffff;fill-opacity:1" />
              <path
                 class="st5"
                 d="m 1071.2,192.6 c 1.8,0 1.8,2.8 0,2.8 -1.8,0 -1.8,-2.8 0,-2.8 z"
                 id="path1249"
                 style="fill:#ffffff;fill-opacity:1" />
              <path
                 class="st5"
                 d="m 1053.7,222.9 c 1.8,0 1.8,2.8 0,2.8 -1.8,0 -1.8,-2.8 0,-2.8 z"
                 id="path1251"
                 style="fill:#ffffff;fill-opacity:1" />
              <path
                 class="st5"
                 d="m 1018.8,222.7 c 1.8,0 1.8,2.8 0,2.8 -1.9,0 -1.9,-2.8 0,-2.8 z"
                 id="path1253"
                 style="fill:#ffffff;fill-opacity:1" />
            </g>
          </g>
        </g>
      </g>
    </g>
  </g>
</svg>
