<?xml version="1.0" encoding="UTF-8" standalone="no"?>
<svg
   id="SVGRoot"
   width="20px"
   height="20px"
   version="1.1"
   viewBox="0 0 16 16"
   sodipodi:docname="glass.svg"
   inkscape:version="1.2.1 (9c6d41e410, 2022-07-14)"
   xmlns:inkscape="http://www.inkscape.org/namespaces/inkscape"
   xmlns:sodipodi="http://sodipodi.sourceforge.net/DTD/sodipodi-0.dtd"
   xmlns="http://www.w3.org/2000/svg"
   xmlns:svg="http://www.w3.org/2000/svg">
  <defs
     id="defs172" />
  <sodipodi:namedview
     id="namedview170"
     pagecolor="#ffffff"
     bordercolor="#666666"
     borderopacity="1.0"
     inkscape:showpageshadow="2"
     inkscape:pageopacity="0.0"
     inkscape:pagecheckerboard="0"
     inkscape:deskcolor="#d1d1d1"
     showgrid="false"
     inkscape:zoom="43.5"
     inkscape:cx="10"
     inkscape:cy="8.1609195"
     inkscape:window-width="1920"
     inkscape:window-height="1011"
     inkscape:window-x="0"
     inkscape:window-y="1112"
     inkscape:window-maximized="1"
     inkscape:current-layer="SVGRoot" />
  <g
     transform="matrix(.033329 0 0 .033329 -.67907 -.47141)"
     id="g167"
     style="fill:#0069f5;fill-opacity:1">
    <path
       d="m193.69 281.29v0.61225c-3.9514 3.6214-6.4904 8.9988-9.3937 13.469-6.3349 9.7518-12.571 19.569-18.802 29.388-19.461 30.667-38.761 61.51-58.745 91.837-7.8557 11.922-15.456 24.044-23.068 36.123-3.0857 4.8961-8.4123 10.646-9.1837 16.531-1.6396 12.496 17.411 23.13 27.356 26.058 3.9318 1.1578 9.2768 1.7002 12.833-0.77387 3.908-2.7196 6.3735-8.4624 8.8555-12.427 5.512-8.8041 11.077-17.589 16.695-26.327 21.696-33.747 43.188-67.645 64.505-101.63 6.5498-10.443 13.303-20.762 19.821-31.225 3.1764-5.1 7.4076-10.302 9.5363-15.918 35.249 13.671 73.6 16.071 109.59 3.2498 74.411-26.507 116.95-110.12 93.27-185.7-5.8751-18.756-14.964-36.071-27.27-51.429-13.476-16.819-30.906-30.149-50.082-39.879-56.39-28.612-130.64-16.379-174.43 29.48-46.21 48.392-56.042 122.3-22.88 180.6 7.8172 13.744 18.33 28.763 31.397 37.959m88.163-221.45c11.736-1.6723 25.305-0.21992 36.735 2.5869 24.813 6.0932 46.799 20.059 62.156 40.699 29.667 39.871 28.22 100.72-5.7771 137.76-7.7988 8.4949-16.675 16.599-26.991 21.992-12.171 6.3612-24.798 11.596-38.571 13.408-23.125 3.0428-47.991-0.41022-68.571-11.713-55.751-30.618-73.431-104.46-38.368-157.16 7.5826-11.396 17.79-21.884 29.184-29.541 15.14-10.175 32.297-15.478 50.204-18.03m9.8774 39.632c-4.6653 2.6155-0.26082 9.2535 4.1137 6.6974 4.2649-2.4918 0.17875-9.1041-4.1137-6.6974m-33.143 3.6576c-3.6772 0.0539-3.5162 5.5206 0 5.7845 3.8137 0.28592 3.6845-5.8378 0-5.7845m69.814-0.0545c-3.8761 0.34959-3.1629 6.281 0.57674 5.888 3.7678-0.39613 3.3031-6.2388-0.57674-5.888m-61.24 13.937c-5.9407 1.0555-4.7652 10.421 1.2214 9.5247 6.1402-0.91899 4.7638-10.588-1.2214-9.5247m52.041 0.0251c-6.4218 0.68265-5.1049 10.536 1.219 9.502 5.8365-0.95327 4.6775-10.129-1.219-9.502m-25.716 3.6337c-7.4547 0.41571-6.9025 11.883 0.61163 11.363 7.2031-0.49898 6.5412-11.761-0.61163-11.363m-56.873 10.638c-4.4082 2.4178-0.90859 9.259 3.54 7.1063 4.7768-2.3112 1.1988-9.7059-3.54-7.1063m110.23 0c-4.2882 2.4692-0.23019 9.6882 4.1045 6.7929 4.0941-2.7355 0.21857-9.2829-4.1045-6.7929m-66.213 5.1894c-13.139 1.9286-9.4592 21.379 3.6735 19.143 11.719-1.9947 8.1135-20.873-3.6735-19.143m23.878 0c-13.135 1.8435-10.18 21.234 3.0612 19.15 11.794-1.8557 8.5665-20.782-3.0612-19.15m-46.528 4.3586c-7.2172 1.1755-5.4912 12.31 1.8337 11.106 7.29-1.1982 5.3688-12.28-1.8337-11.106m69.794 0c-7.3794 1.1559-5.67 12.362 1.8336 11.106 7.1064-1.1896 5.1429-12.199-1.8336-11.106m-60.612 16.544c-11.772 3.5676-6.2915 21.88 5.5096 18.617 12.487-3.4518 6.8455-22.362-5.5096-18.617m47.142-0.0557c-11.959 3.1414-6.3802 22.133 5.5102 18.673 12.313-3.5829 6.8596-21.923-5.5102-18.673m-74.658 5.1863c-5.1019 2.7643-1.088 11.118 4.2226 8.4349 5.8231-2.9412 1.3806-11.472-4.2226-8.4349m103.47-4.6e-4c-5.1036 2.7833-1.0182 11.064 4.2226 8.4355 5.8158-2.9174 1.4517-11.531-4.2226-8.4355m-120 1.1896c-3.5553 0.79469-2.3467 6.2467 1.1584 5.7839 3.7427-0.49347 2.4398-6.5884-1.1584-5.7839m139.62-0.0735c-3.6765 1.1388-1.9157 6.8449 1.7082 5.7778 3.6766-1.0824 1.977-6.919-1.7082-5.7778m-83.33 13.887c-12.326 2.9761-7.208 21.862 4.898 18.939 12.32-2.9749 7.3672-21.901-4.898-18.939m23.265 0.071c-11.916 3.5951-6.5835 22.339 5.5102 18.705 12.16-3.6539 6.5865-22.355-5.5102-18.705m-45.909 3.731c-6.9196 2.6914-2.6669 13.439 4.2649 10.723 6.7837-2.6578 2.6479-13.411-4.2649-10.723m69.796 2e-3c-6.9166 2.6308-2.6939 13.502 4.2502 10.558 6.6257-2.8096 2.4018-13.088-4.2502-10.558m-89.928 13.645c-4.3029 2.4122-1.0059 9.3368 3.5253 7.1082 4.7584-2.34 1.1792-9.7457-3.5253-7.1082m110.21 0c-4.3041 2.4784-0.20999 9.5608 4.1045 6.7776 4.1437-2.6737 0.20387-9.2584-4.1045-6.7776m-55.184 6.5578c-6.8994 2.6835-2.6915 13.503 4.2502 10.559 6.671-2.8292 2.5365-13.199-4.2502-10.559m-25.697 5.512c-5.7336 2.2512-2.1594 11.151 3.6196 8.8824 5.7337-2.2512 2.1594-11.151-3.6196-8.8824m51.437 0.17326c-5.3455 2.8757-1.1608 11.268 4.2166 8.4416 5.583-2.9345 1.26-11.388-4.2166-8.4416m-59.39 17.107c-3.5553 0.7947-2.3467 6.2468 1.1584 5.7839 3.7427-0.49408 2.4398-6.5884-1.1584-5.7839m69.827-0.0735c-3.6686 1.1363-1.939 6.8222 1.7082 5.6927 3.6686-1.1363 1.939-6.8223-1.7082-5.6927m-36.105 2.5598c-4.2318 2.381-0.92449 9.2155 3.5553 7.1064 4.8392-2.2782 1.1204-9.7378-3.5553-7.1064z"
       fill="#3063ef"
       id="path103"
       style="fill:#0069f5;fill-opacity:1" />
    <g
       fill="#3063ee"
       id="g165"
       style="fill:#0069f5;fill-opacity:1">
      <path
         d="m291.73 226.82c-4.2318 2.381-0.92449 9.2155 3.5553 7.1064 4.8392-2.2782 1.1204-9.7378-3.5553-7.1064z"
         id="path105"
         style="fill:#0069f5;fill-opacity:1" />
      <path
         d="m327.84 224.26c-3.6686 1.1363-1.939 6.8222 1.7082 5.6927 3.6686-1.1363 1.939-6.8223-1.7082-5.6927"
         id="path107"
         style="fill:#0069f5;fill-opacity:1" />
      <path
         d="m258.01 224.33c-3.5553 0.7947-2.3467 6.2468 1.1584 5.7839 3.7427-0.49408 2.4398-6.5884-1.1584-5.7839"
         id="path109"
         style="fill:#0069f5;fill-opacity:1" />
      <path
         d="m317.4 207.22c-5.3455 2.8757-1.1608 11.268 4.2166 8.4416 5.583-2.9345 1.26-11.388-4.2166-8.4416"
         id="path111"
         style="fill:#0069f5;fill-opacity:1" />
      <path
         d="m265.97 207.05c-5.7336 2.2512-2.1594 11.151 3.6196 8.8824 5.7337-2.2512 2.1594-11.151-3.6196-8.8824"
         id="path113"
         style="fill:#0069f5;fill-opacity:1" />
      <path
         d="m291.66 201.54c-6.8994 2.6835-2.6915 13.503 4.2502 10.559 6.671-2.8292 2.5365-13.199-4.2502-10.559"
         id="path115"
         style="fill:#0069f5;fill-opacity:1" />
      <path
         d="m346.85 194.98c-4.3041 2.4784-0.20999 9.5608 4.1045 6.7776 4.1437-2.6737 0.20387-9.2584-4.1045-6.7776"
         id="path117"
         style="fill:#0069f5;fill-opacity:1" />
      <path
         d="m236.63 194.98c-4.3029 2.4122-1.0059 9.3368 3.5253 7.1082 4.7584-2.34 1.1792-9.7457-3.5253-7.1082"
         id="path119"
         style="fill:#0069f5;fill-opacity:1" />
      <path
         d="m326.56 181.34c-6.9166 2.6308-2.6939 13.502 4.2502 10.558 6.6257-2.8096 2.4018-13.088-4.2502-10.558"
         id="path121"
         style="fill:#0069f5;fill-opacity:1" />
      <path
         d="m256.76 181.33c-6.9196 2.6914-2.6669 13.439 4.2649 10.723 6.7837-2.6578 2.6479-13.411-4.2649-10.723"
         id="path123"
         style="fill:#0069f5;fill-opacity:1" />
      <path
         d="m302.67 177.6c-11.916 3.5951-6.5835 22.339 5.5102 18.705 12.16-3.6539 6.5865-22.355-5.5102-18.705"
         id="path125"
         style="fill:#0069f5;fill-opacity:1" />
      <path
         d="m279.41 177.53c-12.326 2.9761-7.208 21.862 4.898 18.939 12.32-2.9749 7.3672-21.901-4.898-18.939"
         id="path127"
         style="fill:#0069f5;fill-opacity:1" />
      <path
         d="m362.74 163.65c-3.6765 1.1388-1.9157 6.8449 1.7082 5.7778 3.6766-1.0824 1.977-6.919-1.7082-5.7778"
         id="path129"
         style="fill:#0069f5;fill-opacity:1" />
      <path
         d="m223.11 163.72c-3.5553 0.79469-2.3467 6.2467 1.1584 5.7839 3.7427-0.49347 2.4398-6.5884-1.1584-5.7839"
         id="path131"
         style="fill:#0069f5;fill-opacity:1" />
      <path
         d="m343.12 162.53c-5.1036 2.7833-1.0182 11.064 4.2226 8.4355 5.8158-2.9174 1.4517-11.531-4.2226-8.4355"
         id="path133"
         style="fill:#0069f5;fill-opacity:1" />
      <path
         d="m239.65 162.53c-5.1019 2.7643-1.088 11.118 4.2226 8.4349 5.8231-2.9412 1.3806-11.472-4.2226-8.4349"
         id="path135"
         style="fill:#0069f5;fill-opacity:1" />
      <path
         d="m314.31 157.34c-11.959 3.1414-6.3802 22.133 5.5102 18.673 12.313-3.5829 6.8596-21.923-5.5102-18.673"
         id="path137"
         style="fill:#0069f5;fill-opacity:1" />
      <path
         d="m267.16 157.4c-11.772 3.5676-6.2915 21.88 5.5096 18.617 12.487-3.4518 6.8455-22.362-5.5096-18.617"
         id="path139"
         style="fill:#0069f5;fill-opacity:1" />
      <path
         d="m327.78 140.86c-7.3794 1.1559-5.67 12.362 1.8336 11.106 7.1064-1.1896 5.1429-12.199-1.8336-11.106"
         id="path141"
         style="fill:#0069f5;fill-opacity:1" />
      <path
         d="m257.98 140.86c-7.2172 1.1755-5.4912 12.31 1.8337 11.106 7.29-1.1982 5.3688-12.28-1.8337-11.106"
         id="path143"
         style="fill:#0069f5;fill-opacity:1" />
      <path
         d="m304.51 136.5c-13.135 1.8435-10.18 21.234 3.0612 19.15 11.794-1.8557 8.5665-20.782-3.0612-19.15"
         id="path145"
         style="fill:#0069f5;fill-opacity:1" />
      <path
         d="m280.63 136.5c-13.139 1.9286-9.4592 21.379 3.6735 19.143 11.719-1.9947 8.1135-20.873-3.6735-19.143"
         id="path147"
         style="fill:#0069f5;fill-opacity:1" />
      <path
         d="m346.85 131.31c-4.2882 2.4692-0.23019 9.6882 4.1045 6.7929 4.0941-2.7355 0.21857-9.2829-4.1045-6.7929"
         id="path149"
         style="fill:#0069f5;fill-opacity:1" />
      <path
         d="m236.62 131.31c-4.4082 2.4178-0.90859 9.259 3.54 7.1063 4.7768-2.3112 1.1988-9.7059-3.54-7.1063"
         id="path151"
         style="fill:#0069f5;fill-opacity:1" />
      <path
         d="m293.49 120.67c-7.4547 0.41571-6.9025 11.883 0.61163 11.363 7.2031-0.49898 6.5412-11.761-0.61163-11.363"
         id="path153"
         style="fill:#0069f5;fill-opacity:1" />
      <path
         d="m319.21 117.04c-6.4218 0.68265-5.1049 10.536 1.219 9.502 5.8365-0.95327 4.6775-10.129-1.219-9.502"
         id="path155"
         style="fill:#0069f5;fill-opacity:1" />
      <path
         d="m267.17 117.01c-5.9407 1.0555-4.7652 10.421 1.2214 9.5247 6.1402-0.91899 4.7638-10.588-1.2214-9.5247"
         id="path157"
         style="fill:#0069f5;fill-opacity:1" />
      <path
         d="m328.41 103.07c-3.8761 0.34959-3.1629 6.281 0.57674 5.888 3.7678-0.39613 3.3031-6.2388-0.57674-5.888"
         id="path159"
         style="fill:#0069f5;fill-opacity:1" />
      <path
         d="m258.59 103.13c-3.6772 0.0539-3.5162 5.5206 0 5.7845 3.8137 0.28592 3.6845-5.8378 0-5.7845"
         id="path161"
         style="fill:#0069f5;fill-opacity:1" />
      <path
         d="m291.73 99.47c-4.6653 2.6155-0.26082 9.2535 4.1137 6.6974 4.2649-2.4918 0.17875-9.1041-4.1137-6.6974"
         id="path163"
         style="fill:#0069f5;fill-opacity:1" />
    </g>
  </g>
</svg>
