<?xml version="1.0" encoding="UTF-8" standalone="no"?>
<!-- Created with Inkscape (http://www.inkscape.org/) -->

<svg
   width="120px"
   height="32px"
   viewBox="0 0 120 32"
   version="1.1"
   id="SVGRoot"
   sodipodi:docname="logo.svg"
   inkscape:version="1.1.1 (1:1.1+202109281944+c3084ef5ed)"
   xmlns:inkscape="http://www.inkscape.org/namespaces/inkscape"
   xmlns:sodipodi="http://sodipodi.sourceforge.net/DTD/sodipodi-0.dtd"
   xmlns="http://www.w3.org/2000/svg"
   xmlns:svg="http://www.w3.org/2000/svg">
  <sodipodi:namedview
     id="namedview2348"
     pagecolor="#ffffff"
     bordercolor="#666666"
     borderopacity="1.0"
     inkscape:pageshadow="2"
     inkscape:pageopacity="0.0"
     inkscape:pagecheckerboard="0"
     inkscape:document-units="px"
     showgrid="false"
     inkscape:zoom="6.0150393"
     inkscape:cx="104.4881"
     inkscape:cy="18.86937"
     inkscape:window-width="1920"
     inkscape:window-height="1016"
     inkscape:window-x="0"
     inkscape:window-y="27"
     inkscape:window-maximized="1"
     inkscape:current-layer="layer1" />
  <defs
     id="defs2343" />
  <g
     inkscape:label="Layer 1"
     inkscape:groupmode="layer"
     id="layer1">
    <path
       style="fill:#3063ee;fill-opacity:1;stroke-width:0.0275987"
       d="m 97.60317,30.847285 c -0.865084,-0.299557 -1.66063,-1.000078 -1.713108,-1.508493 -0.02219,-0.21523 -0.04002,-0.183408 1.094333,-1.957967 0.577794,-0.903886 1.05053,-1.654661 1.05053,-1.66838 0,-0.01372 0.0097,-0.02907 0.02062,-0.03414 0.01142,-0.0051 0.09389,-0.127188 0.183428,-0.271387 0.375056,-0.604272 0.900398,-1.429446 2.960707,-4.650401 1.51947,-2.37544 2.04968,-3.200999 2.19443,-3.416753 l 0.12593,-0.18769 -0.43275,-0.433285 c -3.07405,-3.077955 -3.739412,-7.8292373 -1.61867,-11.5589129 4.4311,-7.7928279 16.13204,-5.92342109 17.89994,2.8597879 1.48613,7.383488 -5.85376,13.57846 -12.90083,10.888468 -0.26245,-0.100181 -0.33613,-0.118729 -0.36109,-0.09091 -0.0172,0.01922 -0.14765,0.221256 -0.2898,0.448947 -0.30109,0.4823 -3.75932,5.934956 -5.44371,8.58323 -0.637198,1.001838 -1.169383,1.825661 -1.182634,1.830721 -0.01326,0.0051 -0.0241,0.02253 -0.0241,0.03878 0,0.110207 -0.66718,1.059836 -0.78994,1.124361 -0.197221,0.103667 -0.481312,0.105128 -0.773369,0.0041 z m 13.14648,-14.038537 c 4.67467,-0.61047 7.40544,-5.39598 5.55077,-9.7274481 -0.49944,-1.1664001 -1.66724,-2.5661587 -2.48542,-2.9790344 -0.0417,-0.020933 -0.098,-0.057829 -0.12558,-0.08195 -0.0756,-0.066075 -0.27912,-0.1771107 -0.73725,-0.402312 -3.57599,-1.7578699 -7.93237,-0.13487 -9.4812,3.5322925 -2.08389,4.934008 1.99641,10.348279 7.27879,9.658449 z m -1.09775,-2.742825 c -0.10284,-0.102858 -0.10605,-0.216176 -0.009,-0.33119 0.15503,-0.184256 0.43785,-0.07576 0.43785,0.167958 0,0.227459 -0.2639,0.327962 -0.42863,0.163232 z m -2.14429,-0.201668 c -0.16874,-0.08131 -0.0994,-0.352432 0.0903,-0.352432 0.20364,0 0.26351,0.271425 0.0786,0.355743 -0.0795,0.0362 -0.0872,0.03602 -0.16876,-0.0034 z m 4.46515,-0.0017 c -0.16942,-0.08573 -0.11317,-0.326787 0.0809,-0.345931 0.18702,-0.01847 0.27172,0.206516 0.12191,0.324222 -0.0842,0.06626 -0.10938,0.06895 -0.2028,0.02169 z m -3.93327,-0.907262 c -0.26641,-0.1465 -0.16742,-0.561341 0.13389,-0.561341 0.29576,0 0.42066,0.379975 0.18023,0.548369 -0.0734,0.0513 -0.23247,0.05788 -0.31415,0.01306 z m 3.26411,-0.02221 c -0.24648,-0.193879 -0.0947,-0.580042 0.21332,-0.542265 0.21825,0.02677 0.33061,0.265215 0.21622,0.458822 -0.0839,0.142087 -0.3013,0.184311 -0.42954,0.08344 z m -1.61053,-0.204799 c -0.35711,-0.159365 -0.25175,-0.688465 0.13705,-0.688465 0.44989,0 0.48997,0.638456 0.0447,0.710772 -0.0564,0.009 -0.132,-2e-4 -0.18175,-0.02229 z m -3.47984,-0.636693 c -0.24589,-0.106969 -0.17292,-0.484148 0.0936,-0.484148 0.27266,0 0.35337,0.380668 0.1029,0.485317 -0.10983,0.04587 -0.0881,0.04599 -0.19658,-0.0012 z m 7.0377,0 c -0.2405,-0.10462 -0.17058,-0.484148 0.0892,-0.484148 0.28008,0 0.36378,0.378199 0.10743,0.485317 -0.10991,0.04587 -0.0881,0.04599 -0.19658,-0.0012 z m -4.3522,-0.374594 c -0.40881,-0.122464 -0.56725,-0.662886 -0.28768,-0.981296 0.37491,-0.427006 1.07456,-0.177436 1.07449,0.38329 0,0.423359 -0.38729,0.717686 -0.78681,0.598006 z m 1.47945,-0.0085 c -0.46152,-0.167382 -0.55193,-0.818045 -0.14997,-1.079475 0.34386,-0.223655 0.74628,-0.108837 0.91383,0.260748 0.21584,0.476161 -0.27064,0.997603 -0.76386,0.818723 z m -2.91828,-0.265423 c -0.16509,-0.0683 -0.25845,-0.336186 -0.17325,-0.497221 0.12796,-0.241761 0.48762,-0.253292 0.62977,-0.0202 0.17909,0.293744 -0.13534,0.65022 -0.45652,0.517407 z m 4.3996,-0.03659 c -0.2938,-0.197983 -0.15733,-0.654643 0.19562,-0.654643 0.11943,0 0.2411,0.06953 0.3047,0.173832 0.19646,0.3222 -0.18778,0.691442 -0.50032,0.480811 z m -3.70593,-0.986678 c -0.24517,-0.07344 -0.43147,-0.329301 -0.43147,-0.5925298 0,-0.6522991 0.89125,-0.8426987 1.16272,-0.2483889 0.21297,0.4662957 -0.2406,0.9879027 -0.73125,0.8409187 z m 2.98381,-0.01096 c -0.59396,-0.211975 -0.52091,-1.0936806 0.0982,-1.1865424 0.36314,-0.054446 0.70676,0.2360624 0.70841,0.5989316 9.7e-4,0.4183378 -0.41996,0.7256338 -0.80673,0.5876108 z m -4.72959,-0.303544 c -0.11923,-0.05235 -0.17603,-0.1447243 -0.17603,-0.286322 0,-0.2614063 0.30106,-0.3816462 0.50324,-0.2009932 0.24294,0.2170577 -0.027,0.6191142 -0.32721,0.4873152 z m 6.66847,0.02065 c -0.37621,-0.117711 -0.31417,-0.5902279 0.0772,-0.5878777 0.22233,0.00126 0.34797,0.2325483 0.23988,0.4415185 -0.0561,0.1085352 -0.21038,0.1797402 -0.31708,0.1463592 z m -7.82053,-0.1489704 c -0.14274,-0.1122687 -0.0708,-0.3297024 0.10883,-0.3287604 0.21087,0.00106 0.26903,0.2675002 0.0774,0.3547808 -0.0916,0.04173 -0.10202,0.04027 -0.1863,-0.026031 z m 8.96079,0.029161 c -0.12151,-0.048535 -0.15598,-0.2110679 -0.064,-0.3031398 0.0704,-0.070475 0.22374,-0.073005 0.28553,-0.00466 0.13315,0.1471374 -0.0357,0.3819158 -0.22163,0.3078628 z m -5.31847,-0.8878802 c -0.3266,-0.090401 -0.52241,-0.5222991 -0.3793,-0.836567 0.30151,-0.6620089 1.28729,-0.3453743 1.15709,0.3716486 -0.0621,0.342336 -0.42885,0.5615132 -0.77779,0.4649184 z m 1.54253,0.00833 c -0.55617,-0.1447407 -0.64512,-0.8865599 -0.13708,-1.1429354 0.50682,-0.255733 1.07048,0.269266 0.8385,0.7809733 -0.12735,0.2809431 -0.42421,0.434123 -0.70145,0.3619669 z M 107.4599,8.8763094 c -0.25244,-0.1044245 -0.27257,-0.4911809 -0.033,-0.6371631 0.3136,-0.1912223 0.68087,0.1760419 0.48965,0.4896586 -0.0904,0.1483525 -0.29481,0.2143817 -0.4565,0.1475045 z m 4.43043,-0.00901 c -0.1748,-0.088463 -0.24359,-0.3384024 -0.13995,-0.5084287 0.18578,-0.3047035 0.66328,-0.1715576 0.66328,0.1849511 0,0.2587276 -0.29319,0.4399417 -0.52336,0.3234795 z m -5.75642,-0.8880009 c -0.15808,-0.1580692 -0.0472,-0.4290361 0.17563,-0.4290361 0.23279,0 0.33724,0.2516044 0.17273,0.4161077 -0.10542,0.1054286 -0.25047,0.1108063 -0.34836,0.012919 z m 7.04272,-0.00514 c -0.16312,-0.1631154 -0.0553,-0.4240178 0.17561,-0.4240178 0.15251,0 0.2484,0.093395 0.2484,0.2419712 0,0.2255444 -0.26623,0.3398424 -0.42401,0.1820466 z M 109.7184,7.60298 c -0.19644,-0.057499 -0.30317,-0.3012795 -0.21213,-0.4844901 0.17509,-0.3523298 0.67673,-0.2442623 0.67673,0.1457844 0,0.2497524 -0.22017,0.41026 -0.4646,0.3387057 z m -1.63753,-0.3482003 c -0.24055,-0.087533 -0.26359,-0.4406861 -0.0363,-0.5569253 0.14767,-0.075515 0.34798,-0.00126 0.41229,0.1524259 0.1005,0.240626 -0.13374,0.492653 -0.37599,0.4044994 z m 3.23748,-0.033009 c -0.1146,-0.07191 -0.17021,-0.2374716 -0.12035,-0.3581291 0.1274,-0.3076604 0.58098,-0.2266493 0.58098,0.1037587 0,0.2361157 -0.26057,0.379954 -0.46078,0.2543519 z m -3.79184,-1.0889658 c -0.14537,-0.072482 -0.15355,-0.2296991 -0.0172,-0.3314798 0.17984,-0.1342778 0.38628,0.165487 0.209,0.3034824 -0.0678,0.05277 -0.12522,0.061162 -0.19178,0.027999 z m 4.4693,0.00388 c -0.16221,-0.054301 -0.16664,-0.2698437 -0.007,-0.3459102 0.0899,-0.042826 0.098,-0.042283 0.17013,0.011096 0.18714,0.1391061 0.0561,0.4080852 -0.16303,0.334709 z m -2.27603,-0.1486404 c -0.16314,-0.079208 -0.19583,-0.2714098 -0.068,-0.399336 0.132,-0.131978 0.31882,-0.1041492 0.40377,0.060145 0.11067,0.2139961 -0.11812,0.4449561 -0.33589,0.3391854 z M 6.6966461,18.866051 C 3.7170721,18.68163 1.4614162,17.223096 0.4349138,14.817144 l -0.096592,-0.2264 0.791145,-0.463571 c 0.4351284,-0.254965 1.2385015,-0.72582 1.7852708,-1.046349 l 0.9941213,-0.582778 0.1519461,0.307426 c 0.3594156,0.727169 0.7970081,1.200426 1.3800962,1.492569 1.7346789,0.869123 3.9773659,0.296278 3.9735755,-1.014956 C 9.4123473,12.550383 8.9510596,12.243579 6.8346357,11.56726 6.4703331,11.450837 5.985971,11.29611 5.7582839,11.223409 3.0366054,10.354363 1.5637125,9.0212848 1.1908665,7.0895492 0.50300731,3.5257239 3.0131962,0.72048458 6.8898319,0.72070574 9.1977302,0.72090519 10.906775,1.4869214 12.213499,3.1070547 c 0.371144,0.460156 0.972458,1.4613774 0.91018,1.5155066 -0.01329,0.01162 -0.78791,0.4662596 -1.721438,1.0105154 C 10.468708,6.1773286 9.6660473,6.6454354 9.6185528,6.6733204 L 9.532193,6.7240159 9.3746559,6.4457728 C 8.7570209,5.3549266 8.0626768,4.9240947 6.9174388,4.9210933 5.9261065,4.9184767 5.3443024,5.309129 5.3443024,5.9773336 c 0,0.7765841 0.3986498,1.0344483 2.9069142,1.8803479 3.4732884,1.1713466 4.9939194,2.5388145 5.3513864,4.8123665 0.578828,3.681452 -2.526008,6.467104 -6.9059579,6.196005 z m 16.2941049,0 C 16.665702,18.457386 12.682909,11.711523 15.403714,6.0153683 c 3.116195,-6.52390784 12.267151,-6.95313599 15.909634,-0.7462452 0.08763,0.1493517 0.148664,0.2812484 0.135594,0.2931058 -0.01306,0.011882 -0.787554,0.4282142 -1.721081,0.9252391 -0.933536,0.4970268 -1.761451,0.9398245 -1.839826,0.9839931 L 27.745544,7.5517637 27.654726,7.393051 C 26.402372,5.2041541 23.424191,4.4412532 21.212404,5.7427656 c -3.258881,1.9176743 -3.204336,6.4793044 0.09925,8.3007104 2.188297,1.206495 5.145515,0.380986 6.3234,-1.765182 0.06079,-0.110741 0.121746,-0.208307 0.135479,-0.216786 0.01915,-0.01189 3.698219,1.967652 3.746127,2.015559 0.006,0.006 -0.05434,0.12638 -0.13376,0.267783 -1.63354,2.907938 -5.030869,4.738162 -8.392164,4.521062 z m 8.352823,-0.517418 c 0.03797,-0.102439 1.476226,-4.036324 3.196156,-8.7419216 l 3.12715,-8.5556332 2.279577,-0.00708 2.27958,-0.00708 0.05416,0.145054 c 0.212306,0.5685951 6.336166,17.2665918 6.346392,17.3047738 0.01227,0.04596 -0.10385,0.04811 -2.259033,0.04139 l -2.272016,-0.0071 -0.40315,-1.090152 C 43.470662,16.83131 43.217084,16.14508 43.128888,15.905936 l -0.160365,-0.4348 -3.008486,0.0071 -3.008489,0.0071 -0.520036,1.40754 c -0.286023,0.774145 -0.540026,1.460321 -0.564455,1.524831 l -0.04441,0.117296 H 33.54861 31.274573 Z m 10.128315,-6.9549 c -0.02089,-0.05319 -1.375612,-3.8398042 -1.442367,-4.031609 -0.02288,-0.065707 -0.05123,-0.1091753 -0.06302,-0.096594 -0.02028,0.02165 -1.545029,4.127991 -1.545029,4.160937 0,0.0086 0.690603,0.01555 1.534687,0.01555 1.450437,0 1.53364,-0.0026 1.515716,-0.04829 z m 9.056277,7.122796 c -0.01005,-0.01031 -0.0184,-3.040604 -0.0184,-6.734247 V 5.0665695 H 48.301855 46.093949 V 3.0518556 1.0371443 h 6.54092 6.54092 v 2.0147113 2.0147139 h -2.207906 -2.207904 v 6.7341105 6.734112 h -2.10671 c -1.158693,0 -2.114992,-0.0082 -2.12511,-0.0184 z M 67.455438,9.7850452 V 1.0352937 l 4.201923,0.00926 c 4.600923,0.010129 4.329475,9.98e-4 5.181678,0.175611 3.489339,0.7151069 6.210272,3.4291922 6.899623,6.8822597 0.936324,4.6901926 -1.942244,9.1137546 -6.624202,10.1795536 -1.054101,0.239955 -1.339068,0.252214 -5.871082,0.252528 l -3.787939,2.62e-4 z m 8.431439,4.6409458 C 79.444236,13.629522 80.857067,9.4700969 78.512196,6.6969518 77.942865,6.0236321 76.995835,5.434737 76.135269,5.2188965 75.600826,5.0848504 75.627119,5.086368 73.63067,5.0744544 l -1.897413,-0.011223 v 4.7226469 4.7226437 l 1.938818,-0.01031 c 1.887538,-0.01005 1.946112,-0.01201 2.214802,-0.07213 z m 7.382685,4.080536 c 0,-0.01572 0.858856,-2.378594 1.90858,-5.250834 1.049717,-2.872238 2.482776,-6.7933112 3.184562,-8.7135003 l 1.275984,-3.4912505 h 2.283123 2.283125 l 3.197344,8.7074256 c 1.758537,4.7890852 3.19779,8.7230252 3.19833,8.7420852 8.1e-4,0.0276 -0.46106,0.03323 -2.266088,0.0276 l -2.267079,-0.0071 -0.519875,-1.407541 c -0.285924,-0.7741 -0.53976,-1.460277 -0.564076,-1.524787 l -0.0442,-0.117294 h -3.003709 -3.003702 l -0.04451,0.117243 c -0.0245,0.06453 -0.278889,0.750686 -0.565363,1.524834 l -0.52086,1.407486 -2.265798,0.0071 c -1.548748,0.0046 -2.265791,-0.0021 -2.265791,-0.02154 z m 10.183963,-7.076424 c 0,-0.01031 -1.418482,-3.9816523 -1.48279,-4.151383 -0.02012,-0.053137 -0.162281,0.3082166 -0.792535,2.014711 -0.422404,1.14371 -0.773868,2.094994 -0.78103,2.113966 -0.01031,0.02732 0.305366,0.0345 1.521661,0.0345 0.844077,0 1.534694,-0.0053 1.534694,-0.01189 z"
       id="path1164" />
  </g>
</svg>
